<?xml version="1.0" encoding="UTF-8" standalone="no"?>
<svg xmlns="http://www.w3.org/2000/svg" version="1.2" baseProfile="tiny" viewBox="0.00 0.00 512.00 512.00">
<path stroke="#000000" stroke-opacity="0.000" fill="none" stroke-width="1.00" vector-effect="non-scaling-stroke" d="
  M 0.00 0.00
  L 253.83 0.00"
/>
<path stroke="#000000" stroke-opacity="0.000" fill="none" stroke-width="1.00" vector-effect="non-scaling-stroke" d="
  M 259.46 0.00
  L 512.00 0.00
  L 512.00 512.00
  L 0.00 512.00
  L 0.00 0.00"
/>
<path stroke="#feffff" fill="none" stroke-width="1.00" vector-effect="non-scaling-stroke" d="
  M 253.83 0.00
  L 259.46 0.00"
/>
<path stroke="#feffff" stroke-opacity="0.502" fill="none" stroke-width="1.00" vector-effect="non-scaling-stroke" d="
  M 253.83 0.00
  L 193.70 35.50"
/>
<path stroke="#20ffff" stroke-opacity="0.502" fill="none" stroke-width="1.00" vector-effect="non-scaling-stroke" d="
  M 193.70 35.50
  L 116.62 79.61"
/>
<path stroke="#feffff" stroke-opacity="0.502" fill="none" stroke-width="1.00" vector-effect="non-scaling-stroke" d="
  M 116.62 79.61
  C 99.81 89.20 83.14 98.86 66.61 108.58
  C 62.16 111.20 57.82 114.15 53.62 117.06
  C 53.15 117.39 52.75 117.81 52.42 118.33
  C 52.09 118.86 52.27 119.56 52.82 119.85
  C 56.84 121.99 60.99 123.65 64.98 126.06
  C 72.51 130.61 80.36 134.64 88.53 138.17
  C 88.84 138.30 89.12 138.26 89.37 138.04
  C 91.30 136.33 93.97 134.45 97.40 132.40
  C 109.00 125.46 119.95 119.01 130.25 113.06
  C 138.46 108.31 146.80 103.44 155.29 98.44
  C 171.17 89.10 188.11 79.94 203.37 70.97
  C 221.19 60.49 238.66 50.43 255.77 40.78
  C 256.41 40.42 257.19 40.43 257.82 40.80
  C 267.69 46.66 277.81 52.55 288.18 58.48
  C 298.93 64.63 309.31 71.03 320.04 77.17
  C 332.28 84.16 345.52 91.85 359.75 100.24
  C 368.74 105.54 377.94 110.73 387.34 115.80
  C 387.87 116.09 388.12 116.72 387.92 117.29
  C 387.28 119.13 383.42 121.11 381.78 122.22"
/>
<path stroke="#a8feff" stroke-opacity="0.502" fill="none" stroke-width="1.00" vector-effect="non-scaling-stroke" d="
  M 381.78 122.22
  L 257.05 194.34
  C 256.73 194.53 256.32 194.37 256.21 194.01
  C 256.05 193.48 255.97 192.95 255.98 192.40
  C 256.31 169.24 256.33 141.41 256.05 108.90
  C 256.01 104.20 256.40 99.86 256.09 94.99
  C 256.04 94.20 255.86 93.49 255.56 92.86
  C 255.34 92.40 254.77 92.24 254.34 92.51
  C 240.59 101.17 225.60 110.08 209.38 119.25
  C 202.20 123.30 196.42 126.62 192.04 129.19
  C 180.15 136.17 168.32 143.05 156.55 149.84
  C 152.42 152.22 148.47 154.56 144.70 156.85"
/>
<path stroke="#feffff" stroke-opacity="0.502" fill="none" stroke-width="1.00" vector-effect="non-scaling-stroke" d="
  M 144.70 156.85
  L 132.38 164.08
  C 132.13 164.23 132.12 164.60 132.36 164.77
  C 133.49 165.56 134.63 166.29 135.79 166.96
  C 141.46 170.21 147.29 173.55 153.28 176.96
  C 178.36 191.25 206.60 207.61 238.01 226.03
  C 243.68 229.36 249.93 232.44 256.75 235.29
  C 257.66 235.67 258.69 235.60 259.54 235.11
  L 426.58 138.25"
/>
<path stroke="#a8feff" stroke-opacity="0.502" fill="none" stroke-width="1.00" vector-effect="non-scaling-stroke" d="
  M 426.58 138.25
  L 460.66 118.65
  C 461.22 118.33 461.24 117.54 460.70 117.19
  L 454.12 112.99"
/>
<path stroke="#20ffff" stroke-opacity="0.502" fill="none" stroke-width="1.00" vector-effect="non-scaling-stroke" d="
  M 454.12 112.99
  L 441.85 105.53"
/>
<path stroke="#a8feff" stroke-opacity="0.502" fill="none" stroke-width="1.00" vector-effect="non-scaling-stroke" d="
  M 441.85 105.53
  L 301.15 24.39"
/>
<path stroke="#feffff" stroke-opacity="0.502" fill="none" stroke-width="1.00" vector-effect="non-scaling-stroke" d="
  M 301.15 24.39
  L 259.46 0.00"
/>
<path stroke="#fffff6" stroke-opacity="0.502" fill="none" stroke-width="1.00" vector-effect="non-scaling-stroke" d="
  M 70.45 212.98
  C 70.56 212.72 70.88 212.62 71.11 212.78
  C 79.59 218.37 88.13 223.57 96.73 228.38
  C 106.72 233.97 112.51 237.24 114.12 238.19
  C 125.04 244.58 136.15 251.12 147.45 257.81
  C 159.06 264.67 170.27 270.80 181.83 277.05
  C 186.62 279.63 191.21 282.82 196.29 285.24
  C 197.82 285.97 199.27 287.10 200.49 288.32
  C 200.99 288.82 200.85 289.66 200.22 289.98
  C 194.18 293.00 188.05 296.37 181.82 300.10
  C 176.49 303.28 170.73 306.62 164.53 310.13
  C 151.27 317.62 137.77 325.27 124.03 333.09
  C 121.50 334.53 116.26 337.47 114.99 339.63
  C 114.84 339.90 114.94 340.24 115.21 340.39
  C 120.49 343.21 125.72 345.74 130.88 348.74
  C 166.13 369.17 200.51 388.90 234.00 407.91
  C 235.38 408.70 236.92 409.26 238.62 409.60
  C 238.90 409.66 239.16 409.44 239.15 409.16
  C 238.90 364.43 238.86 320.56 239.02 277.55
  C 239.03 274.02 239.15 268.85 236.07 266.35
  C 228.65 260.34 219.50 256.19 211.21 251.52
  C 185.02 236.77 159.34 222.06 134.15 207.41
  C 125.13 202.17 115.85 197.33 106.40 191.83
  C 80.33 176.64 58.03 163.41 39.50 152.14
  C 38.11 151.30 36.67 150.39 35.16 149.42
  C 34.27 148.85 33.82 149.09 33.82 150.15
  C 34.19 226.17 33.72 307.91 33.86 381.40
  C 33.87 384.24 34.85 385.85 37.15 387.19
  C 56.96 398.76 77.07 410.53 97.49 422.50
  C 103.38 425.95 109.19 429.27 114.92 432.46
  C 125.21 438.20 137.50 445.24 151.81 453.59
  C 177.96 468.84 204.62 484.28 231.79 499.89
  C 233.62 500.94 235.58 501.65 237.68 502.04
  C 238.85 502.25 239.42 501.77 239.40 500.58
  C 239.19 489.45 238.96 478.25 238.72 467.00
  C 238.62 462.19 235.52 460.17 231.62 457.63
  C 223.71 452.46 215.50 448.26 207.60 443.62
  C 200.49 439.44 192.71 435.26 185.74 431.07
  C 171.19 422.34 156.08 413.53 140.41 404.64
  C 130.83 399.20 121.51 393.45 111.77 388.07
  C 99.13 381.08 86.96 373.66 74.14 366.56
  C 71.39 365.04 70.44 363.06 70.44 360.00
  C 70.51 321.19 70.52 280.64 70.49 238.34
  C 70.49 232.45 71.11 222.05 70.33 213.72
  C 70.31 213.46 70.35 213.21 70.45 212.98"
/>
<path stroke="#20ffff" stroke-opacity="0.502" fill="none" stroke-width="1.00" vector-effect="non-scaling-stroke" d="
  M 478.02 362.96
  L 478.18 171.46"
/>
<path stroke="#feffff" stroke-opacity="0.502" fill="none" stroke-width="1.00" vector-effect="non-scaling-stroke" d="
  M 478.18 171.46
  C 478.05 165.13 478.14 158.81 478.45 152.50
  C 478.48 151.89 478.37 151.28 478.10 150.67
  C 477.90 150.21 477.33 150.05 476.92 150.32
  C 467.03 156.82 456.84 162.99 446.35 168.83
  C 441.61 171.46 443.76 177.52 443.75 181.75
  C 443.50 236.54 442.95 292.21 443.50 349.00
  C 443.53 352.79 443.68 356.67 443.94 360.64
  C 444.10 363.22 443.61 365.17 441.28 366.34
  C 428.09 372.95 415.62 380.60 402.73 387.84
  C 373.50 404.26 344.37 421.80 315.24 438.78
  C 314.01 439.49 312.72 440.09 311.37 440.58
  C 311.03 440.70 310.69 440.43 310.72 440.07
  C 310.95 437.63 311.07 435.41 311.08 433.41
  C 311.23 395.61 311.31 357.71 311.34 319.71
  C 311.34 310.93 311.72 301.57 311.42 292.48
  C 311.41 292.15 311.34 291.76 311.21 291.29
  C 311.10 290.90 311.10 290.49 311.19 290.08
  C 311.39 289.20 311.87 289.01 312.63 289.50
  C 316.02 291.71 319.13 293.61 321.95 295.20
  C 340.74 305.77 359.61 316.35 378.55 326.92
  C 383.68 329.79 388.85 332.95 394.08 336.42
  C 395.60 337.43 397.16 337.93 398.75 337.92
  C 399.36 337.91 399.84 337.42 399.83 336.81
  C 399.67 330.79 399.58 325.10 399.57 319.75
  C 399.46 280.57 399.43 239.90 399.50 197.74
  C 399.50 197.25 399.12 196.86 398.63 196.84
  C 398.26 196.82 397.92 196.90 397.62 197.09
  C 386.43 203.95 375.13 209.93 363.73 216.55
  C 338.47 231.21 312.91 245.92 287.06 260.68
  C 284.69 262.03 281.83 263.84 278.49 266.10
  C 275.96 267.81 274.79 269.55 274.87 272.49
  C 275.71 306.72 274.48 345.17 274.68 386.75
  C 274.87 423.50 275.04 460.25 275.20 497.00
  C 275.21 498.26 275.41 499.50 275.80 500.73
  C 276.09 501.62 276.65 501.85 277.49 501.42
  C 280.99 499.57 284.74 497.51 288.74 495.24
  C 307.14 484.77 325.56 474.19 344.01 463.48
  C 378.10 443.71 406.42 427.41 428.97 414.58
  C 442.91 406.65 456.40 398.56 470.00 390.56
  C 472.98 388.82 477.83 387.28 477.88 383.25
  C 477.98 376.48 478.03 369.72 478.02 362.96"
/>
<path stroke="#8fffff" fill="none" stroke-width="1.00" vector-effect="non-scaling-stroke" d="
  M 478.18 171.46
  C 477.91 171.65 477.71 171.91 477.58 172.26
  C 477.47 172.57 477.25 172.67 476.94 172.56
  L 476.17 172.28
  C 475.91 172.19 475.71 171.97 475.63 171.69
  L 474.12 165.74
  C 474.05 165.45 473.91 165.20 473.72 164.99
  L 472.52 163.71
  C 472.37 163.54 472.21 163.54 472.05 163.70
  L 471.82 163.93
  C 471.59 164.15 471.27 164.27 470.95 164.25
  C 468.40 164.10 466.14 164.39 464.17 165.13
  C 461.44 166.16 455.74 168.55 454.07 171.21
  C 453.34 172.38 452.92 173.95 452.81 175.92
  C 452.22 186.88 453.76 197.89 452.98 208.94
  C 452.33 217.98 452.25 227.33 452.73 236.99
  C 453.07 244.01 452.56 250.97 452.53 258.00
  C 452.38 290.65 452.52 322.99 452.94 355.00
  C 452.96 356.61 452.37 359.43 451.16 363.46
  C 450.66 365.13 449.91 366.47 448.90 367.49
  C 447.65 368.76 446.21 369.84 444.60 370.73
  C 442.93 371.65 441.38 372.62 439.96 373.64
  C 438.23 374.88 436.61 375.82 435.09 376.45
  C 433.20 377.24 431.42 378.17 429.74 379.25
  C 429.08 379.68 428.36 379.97 427.57 380.12
  C 426.57 380.32 425.65 380.76 424.82 381.43
  C 423.94 382.14 422.96 382.76 421.89 383.29
  C 421.02 383.72 420.18 384.24 419.37 384.85
  C 418.36 385.60 417.29 386.21 416.15 386.67
  C 415.18 387.06 414.29 387.57 413.47 388.18
  C 411.64 389.57 409.72 390.81 407.71 391.91
  C 406.34 392.66 405.09 393.67 403.94 394.96
  C 403.20 395.79 400.90 396.84 397.04 398.11
  C 396.73 398.22 396.44 398.38 396.18 398.59
  C 395.83 398.88 395.44 399.12 395.00 399.31
  C 392.69 400.30 390.33 401.58 387.93 403.15
  C 387.66 403.33 387.35 403.43 387.02 403.44
  C 386.06 403.49 385.19 403.74 384.42 404.19
  C 383.71 404.61 383.00 404.99 382.30 405.34
  C 379.59 406.69 377.22 408.19 375.20 409.84
  C 373.94 410.87 372.56 411.74 371.07 412.47
  C 368.02 413.96 365.30 416.40 362.35 417.82
  C 360.94 418.50 359.56 419.31 358.21 420.25
  C 357.42 420.80 356.65 421.34 355.88 421.89
  C 353.78 423.38 351.22 424.91 348.19 426.46
  C 347.70 426.71 347.21 427.06 346.72 427.49
  C 346.27 427.88 345.82 428.26 345.37 428.61
  C 344.58 429.22 343.80 429.68 343.01 430.01
  C 340.73 430.95 338.64 432.00 336.73 433.15
  C 335.57 433.85 334.30 434.33 332.93 434.60
  C 331.40 434.89 329.99 435.34 328.71 435.95
  C 325.60 437.43 322.51 438.95 319.45 440.51
  C 318.82 440.83 318.17 441.11 317.50 441.34
  C 314.30 442.43 311.40 443.81 308.04 443.41
  C 307.30 443.32 306.69 442.79 306.50 442.07
  C 305.07 436.79 306.13 431.85 306.14 426.50
  C 306.16 417.06 305.94 407.58 306.24 398.14
  C 306.83 379.92 307.14 360.78 307.18 340.72
  C 307.19 336.33 307.04 332.29 306.75 328.61
  C 306.06 319.90 306.47 311.54 307.15 303.01
  C 307.52 298.31 306.94 293.15 307.24 288.43
  C 307.71 280.92 320.01 287.99 322.80 289.90
  C 324.47 291.04 326.23 292.16 328.06 293.26
  C 328.82 293.71 329.59 294.16 330.37 294.59
  C 332.92 296.01 335.59 297.66 338.36 299.53
  C 339.61 300.38 341.06 301.15 342.71 301.85
  C 344.18 302.47 345.64 303.18 347.10 303.99
  C 348.75 304.92 350.89 305.82 353.52 306.71
  C 354.57 307.06 355.50 307.53 356.31 308.12
  C 357.36 308.89 358.51 309.30 359.76 309.35
  C 360.69 309.39 361.54 309.61 362.31 310.01
  C 362.92 310.32 362.91 310.34 362.28 310.07
  C 361.22 309.61 360.28 309.44 359.45 309.56
  C 359.39 309.57 359.35 309.62 359.34 309.68
  C 359.34 309.74 359.38 309.79 359.44 309.80
  C 360.43 309.99 361.17 310.34 361.66 310.85
  C 362.73 311.94 363.73 312.64 364.66 312.94"
/>
<path stroke="#d3ffff" fill="none" stroke-width="1.00" vector-effect="non-scaling-stroke" d="
  M 364.66 312.94
  C 365.77 313.79 366.96 314.41 368.21 314.80"
/>
<path stroke="#8fffff" fill="none" stroke-width="1.00" vector-effect="non-scaling-stroke" d="
  M 368.21 314.80
  C 369.02 315.13 369.68 315.58 370.19 316.13"
/>
<path stroke="#d3ffff" fill="none" stroke-width="1.00" vector-effect="non-scaling-stroke" d="
  M 370.19 316.13
  L 380.96 322.72
  C 380.97 322.73 380.98 322.73 380.99 322.73
  C 381.07 322.70 381.15 322.68 381.24 322.66"
/>
<path stroke="#8fffff" fill="none" stroke-width="1.00" vector-effect="non-scaling-stroke" d="
  M 381.24 322.66
  C 381.45 322.60 381.63 322.62 381.80 322.71"
/>
<path stroke="#d3ffff" fill="none" stroke-width="1.00" vector-effect="non-scaling-stroke" d="
  M 381.80 322.71
  C 381.89 323.32 382.22 323.62 382.79 323.63
  C 385.96 325.95 389.53 326.72 393.50 325.94"
/>
<path stroke="#8fffff" fill="none" stroke-width="1.00" vector-effect="non-scaling-stroke" d="
  M 393.50 325.94
  C 393.07 325.35 393.21 325.06 393.92 325.09
  C 394.79 325.13 395.58 324.60 395.88 323.78
  C 396.22 322.85 396.52 321.87 396.77 320.86
  C 396.99 319.98 397.11 319.06 397.13 318.10
  C 397.30 311.45 397.27 304.80 397.04 298.15
  C 396.86 292.94 396.74 287.83 396.69 282.84
  C 396.64 277.73 396.51 272.62 396.32 267.51
  C 395.96 257.94 395.48 248.27 394.87 238.50
  C 394.80 237.29 394.68 236.26 394.52 235.39
  C 394.25 233.88 394.10 232.86 394.07 232.32
  C 393.95 230.05 393.78 227.78 393.55 225.51
  C 393.53 225.32 393.43 225.20 393.24 225.16
  C 393.12 225.14 393.08 225.07 393.11 224.94
  C 393.14 224.82 393.14 224.70 393.11 224.59
  C 392.60 221.88 392.12 219.12 391.65 216.32
  C 391.41 214.84 390.43 213.99 391.07 212.36
  C 391.30 211.79 390.95 211.15 390.35 211.03
  C 389.28 210.81 388.19 210.88 387.10 211.25
  C 382.77 212.70 378.90 214.24 375.49 215.89
  C 369.31 218.88 360.36 223.98 348.65 231.21
  C 347.32 232.03 345.90 232.42 344.69 233.33
  C 342.72 234.80 340.41 235.11 338.47 236.68
  C 337.43 237.52 336.36 238.21 335.25 238.76
  C 333.56 239.59 331.86 240.39 330.16 241.14
  C 328.59 241.84 326.97 242.77 325.28 243.92
  C 323.06 245.44 320.56 246.87 317.77 248.20
  C 315.95 249.07 314.51 250.61 312.72 251.55
  C 308.95 253.55 305.61 255.81 302.69 258.32
  C 301.18 259.62 299.65 260.72 298.10 261.63
  C 296.40 262.62 294.70 263.65 292.99 264.71
  C 291.69 265.52 290.40 266.11 289.12 266.46
  C 286.93 267.07 285.10 268.59 283.61 271.04
  C 282.58 272.74 281.98 274.67 281.82 276.83
  C 281.63 279.23 281.63 281.45 281.81 283.49
  C 282.24 288.28 282.94 293.19 283.92 298.22
  C 284.42 300.74 284.51 303.85 284.23 306.29
  C 283.18 315.67 282.72 324.96 282.85 334.16
  C 282.95 341.05 283.52 350.15 283.39 357.92
  C 283.24 366.69 283.12 375.47 283.01 384.25
  C 283.00 385.58 282.98 386.91 282.96 388.26
  C 282.82 397.28 282.78 406.11 282.83 414.75
  C 282.86 419.14 282.82 423.42 282.72 427.58
  C 282.56 434.56 282.68 441.26 282.33 448.09
  C 281.78 458.82 281.56 471.04 281.66 484.77
  C 281.67 486.93 282.16 488.77 283.11 490.30
  C 283.36 490.71 283.95 490.75 284.27 490.39
  C 285.82 488.67 287.64 487.39 289.73 486.55
  C 290.82 486.11 291.89 485.63 292.92 485.11
  C 297.08 483.03 301.40 480.82 305.87 478.47
  C 308.58 477.04 309.73 474.45 313.25 474.55
  C 313.58 474.56 313.85 474.43 314.05 474.15
  C 314.11 474.06 314.19 474.00 314.29 473.97
  C 317.48 472.93 320.21 471.39 322.49 469.36
  C 323.51 468.45 324.61 467.81 325.80 467.42
  C 329.53 466.22 332.75 464.59 335.45 462.52
  C 337.31 461.11 339.19 459.86 341.08 458.79
  C 343.07 457.66 345.02 456.50 346.91 455.31
  C 347.63 454.85 348.39 454.49 349.20 454.24
  C 350.12 453.95 350.88 453.36 351.47 452.47
  C 351.64 452.22 351.85 452.03 352.12 451.90
  C 353.21 451.35 354.29 450.89 355.37 450.54
  C 355.99 450.34 356.78 449.63 357.23 449.16
  C 357.49 448.88 357.80 448.68 358.17 448.57
  C 363.15 447.04 367.68 444.85 371.75 442.01
  C 371.93 441.88 372.09 441.73 372.22 441.55
  C 372.40 441.29 372.63 441.08 372.91 440.92
  C 375.15 439.61 377.37 438.49 379.42 436.80
  C 380.56 435.87 381.92 435.20 383.49 434.79
  C 383.87 434.70 384.20 434.51 384.48 434.24
  C 386.53 432.23 389.08 430.85 392.12 430.12
  C 392.46 430.03 392.78 429.87 393.04 429.64
  C 394.32 428.53 395.69 427.57 397.14 426.76
  C 398.59 425.96 399.98 425.06 401.31 424.05
  C 402.74 422.96 404.33 422.14 406.10 421.57
  C 407.67 421.06 409.22 420.47 410.73 419.79
  C 411.45 419.46 412.11 419.05 412.71 418.56
  C 413.37 418.01 414.04 417.51 414.73 417.06
  C 415.46 416.58 416.15 416.04 416.80 415.44
  C 417.58 414.71 418.48 414.35 419.51 414.37
  C 419.82 414.38 420.00 414.22 420.04 413.91
  C 420.08 413.59 420.23 413.36 420.49 413.23
  C 421.41 412.77 422.33 412.31 423.24 411.84
  C 423.79 411.56 424.67 411.01 425.86 410.19
  C 426.59 409.69 427.36 409.25 428.17 408.88
  C 428.47 408.74 428.73 408.54 428.94 408.28
  C 429.57 407.51 430.34 407.06 431.26 406.94
  C 431.41 406.93 431.54 406.88 431.67 406.81
  C 431.84 406.72 431.92 406.58 431.91 406.39
  C 431.90 406.17 432.03 405.96 432.23 405.87
  C 433.85 405.16 435.23 404.10 436.36 402.71
  C 437.19 401.68 438.21 401.08 439.40 400.92
  C 441.46 400.64 443.64 398.94 444.99 397.46
  C 447.25 394.97 450.50 392.21 453.88 391.43
  C 455.03 391.17 455.99 390.62 456.75 389.78
  C 457.63 388.81 458.65 388.02 459.81 387.43
  C 464.02 385.27 467.47 382.65 470.17 379.56
  C 471.18 378.40 472.20 377.25 473.23 376.11
  C 474.24 374.99 474.91 373.88 475.25 372.77
  C 475.90 370.71 476.26 368.42 476.34 365.90
  C 476.38 364.70 476.84 363.61 477.18 362.48
  C 477.19 362.42 477.22 362.37 477.25 362.32
  C 477.34 362.16 477.43 362.10 477.52 362.13
  C 477.66 362.18 477.74 362.28 477.77 362.43
  C 477.81 362.67 477.89 362.85 478.02 362.96"
/>
<path stroke="#64ffff" fill="none" stroke-width="1.00" vector-effect="non-scaling-stroke" d="
  M 393.50 325.94
  C 390.77 325.76 388.43 325.14 386.47 324.07
  C 385.77 323.68 385.08 323.39 384.39 323.20
  C 383.64 322.99 382.92 322.67 382.25 322.25
  C 382.19 322.21 382.11 322.19 382.03 322.20
  C 381.34 322.27 381.27 322.44 381.80 322.71"
/>
<path stroke="#64ffff" fill="none" stroke-width="1.00" vector-effect="non-scaling-stroke" d="
  M 381.24 322.66
  C 381.10 322.10 380.81 321.67 380.36 321.38
  C 379.35 320.71 378.35 320.06 377.36 319.41
  C 376.51 318.86 375.55 318.40 374.48 318.03
  C 373.37 317.65 372.37 317.16 371.48 316.56
  C 371.33 316.47 371.34 316.39 371.49 316.32
  C 371.56 316.29 371.64 316.32 371.71 316.42
  C 371.74 316.46 371.81 316.44 371.80 316.39
  C 371.76 315.91 371.49 315.66 371.00 315.63
  C 370.53 315.61 370.26 315.78 370.19 316.13"
/>
<path stroke="#64ffff" fill="none" stroke-width="1.00" vector-effect="non-scaling-stroke" d="
  M 368.21 314.80
  L 368.50 314.61
  C 368.76 314.43 368.76 314.25 368.49 314.08
  C 367.26 313.29 365.98 312.91 364.66 312.94"
/>
<path stroke="#d3ffff" fill="none" stroke-width="1.00" vector-effect="non-scaling-stroke" d="
  M 301.15 24.39
  C 297.97 24.62 294.79 23.45 291.62 20.88
  C 291.06 20.43 290.13 20.14 288.82 20.02"
/>
<path stroke="#8fffff" fill="none" stroke-width="1.00" vector-effect="non-scaling-stroke" d="
  M 288.82 20.02
  L 265.81 7.27
  C 265.59 7.15 265.41 6.99 265.27 6.79
  C 264.94 6.33 264.49 6.16 263.94 6.28
  C 263.63 6.35 263.32 6.32 263.03 6.20
  L 260.57 5.19"
/>
<path stroke="#d3ffff" fill="none" stroke-width="1.00" vector-effect="non-scaling-stroke" d="
  M 260.57 5.19
  L 258.19 4.18
  C 258.09 4.13 257.99 4.13 257.88 4.17
  C 257.79 4.20 257.73 4.27 257.70 4.36
  C 257.63 4.55 257.49 4.62 257.30 4.59
  C 256.26 4.44 255.10 4.65 253.83 5.20"
/>
<path stroke="#8fffff" fill="none" stroke-width="1.00" vector-effect="non-scaling-stroke" d="
  M 253.83 5.20
  C 252.48 5.91 250.90 6.83 249.09 7.97
  C 248.01 8.65 247.69 9.56 246.48 9.94
  C 246.17 10.03 245.90 10.19 245.67 10.41
  C 244.85 11.18 243.84 11.71 242.64 12.00
  C 242.32 12.08 242.03 12.22 241.78 12.43
  C 240.93 13.14 239.83 13.82 238.50 14.47
  C 234.02 16.65 229.52 18.73 224.99 20.70
  C 221.54 22.20 218.74 23.62 216.59 24.97
  C 213.98 26.60 211.27 28.27 208.48 29.97
  C 208.00 30.26 207.50 30.55 206.98 30.82
  C 202.79 33.03 198.96 35.16 195.48 37.23
  C 195.17 37.41 194.87 37.40 194.58 37.21
  C 194.06 36.86 193.77 36.29 193.70 35.50"
/>
<path stroke="#64ffff" fill="none" stroke-width="1.00" vector-effect="non-scaling-stroke" d="
  M 260.57 5.19
  L 253.83 5.20"
/>
<path stroke="#64ffff" fill="none" stroke-width="1.00" vector-effect="non-scaling-stroke" d="
  M 288.82 20.02
  L 292.96 23.31
  C 293.19 23.50 293.46 23.61 293.77 23.65
  C 294.53 23.74 295.32 23.97 296.14 24.36
  C 296.31 24.43 296.43 24.55 296.52 24.72
  C 296.71 25.07 297.00 25.28 297.40 25.35
  C 297.66 25.39 297.88 25.57 297.97 25.82
  C 298.21 26.45 298.65 26.71 299.29 26.61
  C 299.56 26.57 299.78 26.65 299.96 26.84
  C 300.89 27.83 302.13 28.58 303.66 29.09
  C 304.53 29.38 305.36 29.82 306.13 30.42
  C 308.76 32.46 312.05 33.40 315.00 35.14
  C 316.45 35.99 318.03 36.84 319.72 37.68
  C 323.19 39.39 327.65 42.08 333.08 45.74
  C 336.08 47.76 339.08 49.45 342.08 50.81
  C 345.25 52.24 348.29 53.87 351.22 55.72
  C 354.48 57.78 358.02 59.06 361.34 61.10
  C 367.05 64.61 372.85 67.99 378.72 71.24
  C 380.71 72.35 382.76 74.45 385.24 75.78
  C 391.09 78.91 396.89 82.10 402.64 85.35
  C 405.58 87.01 408.39 88.75 411.08 90.56
  C 415.23 93.37 419.37 96.34 423.81 98.63
  C 427.02 100.28 430.18 102.12 433.55 103.40
  C 435.39 104.09 437.14 105.00 438.81 106.12
  C 439.28 106.43 439.79 106.57 440.35 106.52
  C 441.23 106.45 441.73 106.12 441.85 105.53"
/>
<path stroke="#64ffff" fill="none" stroke-width="1.00" vector-effect="non-scaling-stroke" d="
  M 454.12 112.99
  C 453.65 116.02 452.46 118.26 450.56 119.69
  C 448.68 121.10 447.71 121.84 447.66 121.89
  C 445.97 123.50 444.27 125.02 442.54 126.45
  C 441.98 126.92 440.71 127.61 438.73 128.54
  C 438.59 128.61 438.55 128.71 438.60 128.86
  C 438.64 128.95 438.63 129.02 438.57 129.09
  C 438.49 129.18 438.40 129.24 438.29 129.29
  C 437.73 129.51 437.25 129.84 436.85 130.29
  C 436.62 130.54 436.35 130.71 436.04 130.81
  C 433.73 131.52 431.94 132.34 430.67 133.25
  C 428.91 134.51 427.10 135.73 425.23 136.92
  C 424.33 137.49 423.36 138.20 422.31 139.03"
/>
<path stroke="#8fffff" fill="none" stroke-width="1.00" vector-effect="non-scaling-stroke" d="
  M 422.31 139.03
  C 422.02 139.26 421.65 139.52 421.21 139.80
  C 420.30 140.37 419.26 140.34 418.42 140.98
  C 417.97 141.33 417.50 141.64 417.01 141.91
  C 411.56 144.93 406.25 147.84 401.10 150.64
  C 396.99 152.88 393.19 155.45 389.03 157.61
  C 387.22 158.55 385.43 159.60 383.64 160.75
  C 381.89 161.87 380.12 162.96 378.31 164.01
  C 373.23 166.97 367.87 170.26 362.23 173.87
  C 358.49 176.27 354.41 177.84 350.63 180.38
  C 347.54 182.45 344.32 184.29 340.97 185.91
  C 339.04 186.85 337.27 188.06 335.35 189.09
  C 330.11 191.91 324.73 194.84 319.22 197.87
  C 316.10 199.59 313.41 201.77 310.24 203.35
  C 307.90 204.52 305.66 205.84 303.51 207.31
  C 299.78 209.84 295.68 211.70 291.82 214.24
  C 288.95 216.13 286.12 217.89 283.34 219.52
  C 280.64 221.10 277.57 222.53 274.12 223.80
  C 271.61 224.73 269.46 226.53 266.82 227.06
  C 263.84 227.65 260.65 228.29 257.26 228.98
  C 249.61 230.54 242.01 224.93 235.69 221.54
  C 230.32 218.65 224.94 215.28 219.56 211.42
  C 212.09 206.07 203.88 201.13 194.91 196.58
  C 193.10 195.66 191.08 195.05 189.41 193.89
  C 186.32 191.75 183.07 189.77 179.66 187.94
  C 177.40 186.73 175.58 185.07 173.31 183.97
  C 170.66 182.68 168.50 181.63 166.85 180.82
  C 165.79 180.31 164.58 179.52 163.22 178.45
  C 161.96 177.47 160.72 176.71 159.49 176.16
  C 157.44 175.25 155.86 174.37 154.75 173.54"
/>
<path stroke="#64ffff" fill="none" stroke-width="1.00" vector-effect="non-scaling-stroke" d="
  M 154.75 173.54
  L 151.64 170.06
  C 151.22 169.59 151.31 169.47 151.90 169.68
  C 152.75 169.99 153.32 170.53 153.61 171.30
  C 153.63 171.35 153.66 171.40 153.70 171.45
  L 154.76 172.50
  C 155.23 172.97 155.34 172.90 155.08 172.29
  L 154.52 171.00
  L 155.95 172.85
  C 155.97 172.88 156.00 172.89 156.03 172.87
  C 156.12 172.82 156.16 172.75 156.13 172.67
  C 155.58 171.22 154.71 170.00 153.50 169.00
  C 152.33 168.04 151.61 166.93 151.34 165.67
  C 151.05 164.32 151.17 163.02 151.69 161.78
  C 152.19 160.58 151.83 159.51 152.70 158.45
  C 153.37 157.64 154.13 156.99 154.99 156.50
  C 155.82 156.03 156.56 155.42 157.23 154.67
  C 158.18 153.60 159.32 152.66 160.64 151.86
  C 160.93 151.68 161.17 151.45 161.36 151.16
  C 163.69 147.43 167.63 146.14 171.37 144.37
  C 173.25 143.48 175.08 142.31 176.85 140.88
  C 178.19 139.79 179.81 138.91 181.72 138.23
  C 183.77 137.49 185.63 136.05 187.53 134.98
  C 187.65 134.91 187.73 134.81 187.77 134.67
  C 187.84 134.44 187.96 134.26 188.15 134.11
  C 189.66 132.94 191.17 132.18 192.69 131.82
  C 193.62 131.60 194.52 131.16 195.38 130.50
  C 196.38 129.73 197.49 129.10 198.71 128.59
  C 199.04 128.45 199.32 128.24 199.55 127.97
  C 200.19 127.20 200.96 126.70 201.85 126.48
  C 202.82 126.25 203.83 125.97 204.90 125.65
  C 205.96 125.34 206.97 124.85 207.94 124.19
  C 214.40 119.75 219.99 116.10 224.70 113.23
  C 226.00 112.44 227.53 112.20 228.83 111.38
  C 232.13 109.29 235.41 107.24 238.67 105.22
  C 240.52 104.08 242.93 102.93 245.14 103.12
  C 247.47 103.32 249.68 102.79 251.75 101.54
  C 252.08 101.34 252.51 101.52 252.60 101.90
  C 253.27 104.73 253.66 107.34 253.76 109.73
  C 253.97 114.76 254.08 120.10 254.08 125.75
  C 254.08 133.81 254.04 142.11 253.97 150.65
  C 253.87 162.90 253.35 174.54 253.73 187.24
  C 253.80 189.53 251.98 195.27 255.49 196.19
  C 256.81 196.54 257.83 196.53 258.54 196.17
  C 261.50 194.69 264.43 193.15 267.34 191.56
  C 268.64 190.85 270.12 190.30 271.77 189.92
  C 273.87 189.44 275.54 188.54 276.79 187.21
  C 276.95 187.04 277.14 186.93 277.37 186.89
  C 280.31 186.39 281.95 184.27 284.54 183.19
  C 286.09 182.54 287.49 181.79 288.72 180.92
  C 289.98 180.03 291.30 179.26 292.67 178.59
  C 299.27 175.40 304.97 172.42 309.76 169.66
  C 310.17 169.43 310.60 169.13 311.05 168.78
  C 311.35 168.55 311.65 168.37 311.95 168.25
  C 314.12 167.44 316.05 166.27 317.76 164.75
  C 318.67 163.94 319.58 163.24 320.50 162.67
  C 321.50 162.04 322.48 161.39 323.45 160.72
  C 325.28 159.46 327.17 158.39 329.10 157.50
  C 329.37 157.38 329.57 157.19 329.70 156.92
  C 329.82 156.67 330.00 156.49 330.24 156.37
  C 333.35 154.79 336.18 152.89 338.89 150.60
  C 339.70 149.92 340.55 149.31 341.46 148.77
  C 341.53 148.73 342.02 148.40 342.91 147.77
  C 343.59 147.29 344.38 147.01 345.28 146.94
  C 345.60 146.91 345.90 146.82 346.18 146.65
  L 360.94 137.62
  C 361.20 137.45 361.49 137.37 361.80 137.37
  C 363.79 137.34 364.47 135.83 365.99 135.03
  C 368.08 133.93 369.99 132.99 371.95 131.59
  C 376.05 128.66 380.27 125.81 384.60 123.04"
/>
<path stroke="#8fffff" fill="none" stroke-width="1.00" vector-effect="non-scaling-stroke" d="
  M 384.60 123.04
  C 388.10 121.46 392.48 119.21 391.14 115.01
  C 391.04 114.70 390.85 114.46 390.58 114.29
  C 387.78 112.49 385.02 110.95 382.30 109.66
  C 380.62 108.86 378.98 107.91 377.37 106.82
  C 373.85 104.42 369.76 103.38 366.26 100.60
  C 363.27 98.22 359.59 97.33 356.52 95.05
  C 352.70 92.23 347.94 90.55 343.75 87.96
  C 341.36 86.48 338.97 85.10 336.56 83.83
  C 333.19 82.06 330.72 79.37 327.14 77.97
  C 324.17 76.82 321.65 75.40 319.58 73.72
  C 316.97 71.59 313.77 70.53 311.16 68.29
  C 309.75 67.08 308.20 66.13 306.51 65.42
  C 304.14 64.44 302.01 63.06 300.12 61.27
  C 298.92 60.14 297.55 59.25 296.01 58.61
  C 292.68 57.22 289.68 55.38 287.03 53.09
  C 285.93 52.14 284.68 51.32 283.27 50.63
  C 280.39 49.21 278.66 46.53 275.62 45.34
  C 273.67 44.59 271.72 43.69 269.76 42.65
  C 269.71 42.62 269.72 42.61 269.77 42.61
  C 269.86 42.61 269.91 42.56 269.94 42.45
  C 269.96 42.38 269.94 42.32 269.87 42.28
  L 265.38 39.54"
/>
<path stroke="#64ffff" fill="none" stroke-width="1.00" vector-effect="non-scaling-stroke" d="
  M 265.38 39.54
  C 264.75 38.43 263.38 37.97 261.25 38.14"
/>
<path stroke="#8fffff" fill="none" stroke-width="1.00" vector-effect="non-scaling-stroke" d="
  M 261.25 38.14
  C 257.67 37.17 254.30 37.47 251.38 39.95
  C 245.89 44.63 239.35 47.79 233.26 51.40
  C 232.48 51.87 231.63 52.00 230.72 51.80
  C 230.02 51.65 229.33 52.06 229.12 52.74
  C 228.95 53.29 228.56 53.59 227.95 53.62
  C 227.71 53.64 227.51 53.80 227.44 54.03
  C 227.27 54.57 226.94 54.73 226.44 54.50
  C 226.30 54.44 226.19 54.47 226.10 54.59
  C 225.46 55.46 224.62 55.86 223.57 55.80
  C 223.54 55.80 223.52 55.84 223.55 55.86
  C 223.67 55.97 223.68 56.12 223.58 56.32
  C 223.52 56.45 223.40 56.53 223.26 56.54
  C 222.19 56.63 221.12 57.01 220.05 57.70
  C 219.87 57.82 219.74 57.99 219.67 58.20
  C 219.20 59.57 218.21 60.08 216.71 59.71
  C 216.48 59.66 216.25 59.68 216.03 59.78
  C 214.15 60.63 212.52 61.80 211.14 63.28
  C 209.15 65.41 206.70 67.19 203.77 68.61
  C 203.63 68.68 203.50 68.67 203.39 68.59
  C 203.13 68.40 202.88 68.42 202.65 68.64
  L 200.26 70.94
  C 200.11 71.09 199.92 71.15 199.71 71.13
  C 199.58 71.12 199.46 71.11 199.33 71.11
  C 199.12 71.12 198.91 71.18 198.71 71.29
  C 197.40 72.04 196.14 72.57 194.94 72.88
  C 193.55 73.25 192.39 73.81 191.46 74.57
  C 190.35 75.48 189.36 76.45 188.49 77.50
  C 188.28 77.75 187.92 77.88 187.39 77.90
  C 186.97 77.92 186.57 78.05 186.23 78.29
  C 183.60 80.10 181.02 81.80 178.48 83.39
  C 177.71 83.88 176.81 84.30 175.80 84.66
  C 174.99 84.95 174.22 85.35 173.48 85.86
  C 172.49 86.54 171.51 87.14 170.53 87.67
  C 169.44 88.25 168.37 88.92 167.34 89.68
  C 166.37 90.40 165.36 90.99 164.31 91.46
  C 163.42 91.85 162.60 92.35 161.84 92.94
  C 161.05 93.56 160.21 94.10 159.30 94.57
  C 155.77 96.39 152.38 98.35 149.12 100.45
  C 147.01 101.80 144.93 103.00 142.87 104.05
  C 140.74 105.13 138.66 106.16 136.63 107.15
  C 135.02 107.94 133.41 108.94 131.82 110.17
  C 128.87 112.44 125.40 113.90 122.21 115.75
  C 117.64 118.40 112.99 121.07 108.28 123.76
  C 107.14 124.42 105.81 124.54 104.63 125.22
  C 102.27 126.59 99.73 128.07 97.00 129.66
  C 93.33 131.81 90.77 132.92 89.33 132.99
  C 86.90 133.10 84.72 132.68 82.79 131.73
  C 81.55 131.12 80.30 130.52 79.04 129.95
  C 76.55 128.82 74.06 127.56 71.56 126.17
  C 71.13 125.93 70.84 125.59 70.71 125.14
  C 70.62 124.82 70.46 124.54 70.25 124.29
  C 67.99 121.72 66.65 119.26 66.24 116.91
  C 66.03 115.75 66.34 114.71 67.16 113.78
  C 67.37 113.55 67.44 113.27 67.38 112.96
  C 67.11 111.61 67.64 110.61 68.95 109.95
  C 73.96 107.42 78.90 104.52 83.79 101.23
  C 84.54 100.73 85.35 100.29 86.24 99.90
  C 87.11 99.53 87.91 99.00 88.64 98.31
  C 88.89 98.08 89.18 97.94 89.52 97.89
  C 90.69 97.72 91.61 97.17 92.30 96.22
  C 92.51 95.93 92.77 95.71 93.09 95.55
  C 95.58 94.36 98.06 93.13 100.55 91.84
  C 101.70 91.25 102.76 90.50 103.74 89.59
  C 105.50 87.98 107.82 87.04 109.31 85.11
  C 109.52 84.83 109.81 84.67 110.16 84.62
  L 113.13 84.19
  C 113.42 84.15 113.68 83.98 113.84 83.73
  C 114.07 83.36 114.40 83.14 114.85 83.06
  C 115.25 82.99 115.60 82.81 115.90 82.54
  C 117.66 80.96 117.90 79.98 116.62 79.61"
/>
<path stroke="#d3ffff" fill="none" stroke-width="1.00" vector-effect="non-scaling-stroke" d="
  M 261.25 38.14
  L 265.38 39.54"
/>
<path stroke="#d3ffff" fill="none" stroke-width="1.00" vector-effect="non-scaling-stroke" d="
  M 384.60 123.04
  C 382.35 123.39 381.41 123.12 381.78 122.22"
/>
<path stroke="#64ffff" fill="none" stroke-width="1.00" vector-effect="non-scaling-stroke" d="
  M 154.52 171.00
  C 153.83 169.64 153.04 168.81 152.16 168.50
  C 151.62 168.32 151.24 167.85 151.15 167.29
  C 150.76 164.76 150.81 162.48 151.30 160.46
  C 151.64 159.07 152.52 157.80 153.95 156.63
  C 154.05 156.55 154.18 156.49 154.32 156.48
  C 154.51 156.45 154.67 156.38 154.80 156.27
  C 155.37 155.79 155.32 155.71 154.65 156.03
  C 152.19 157.22 150.74 158.77 150.30 160.67
  C 149.91 162.36 149.97 164.40 150.46 166.80
  C 150.53 167.13 150.68 167.40 150.93 167.63
  L 154.52 171.00"
/>
<path stroke="#d3ffff" fill="none" stroke-width="1.00" vector-effect="non-scaling-stroke" d="
  M 154.75 173.54
  C 153.84 173.38 153.11 172.92 152.54 172.17
  C 152.34 171.91 152.08 171.73 151.77 171.64
  C 150.94 171.40 150.21 170.85 149.58 169.99"
/>
<path stroke="#64ffff" fill="none" stroke-width="1.00" vector-effect="non-scaling-stroke" d="
  M 149.58 169.99
  L 145.90 162.32
  C 145.44 161.36 145.80 160.21 146.73 159.69
  C 148.25 158.84 149.71 157.61 151.11 155.98
  C 151.16 155.93 151.15 155.89 151.08 155.87
  C 151.05 155.86 151.01 155.85 150.98 155.85
  C 150.86 155.85 150.75 155.89 150.65 155.97
  C 149.22 157.25 147.92 158.41 146.75 159.46
  C 145.58 160.50 145.19 162.17 145.78 163.62
  L 147.90 168.89"
/>
<path stroke="#d3ffff" fill="none" stroke-width="1.00" vector-effect="non-scaling-stroke" d="
  M 147.90 168.89
  C 144.17 168.31 142.61 166.10 143.22 162.27
  C 143.49 160.62 143.98 158.82 144.70 156.85"
/>
<path stroke="#64ffff" fill="none" stroke-width="1.00" vector-effect="non-scaling-stroke" d="
  M 152.66 156.52
  C 154.38 155.34 155.93 154.01 157.31 152.54
  C 157.72 152.10 157.65 151.99 157.09 152.20
  C 156.65 152.37 156.28 152.62 155.99 152.95
  C 155.88 153.06 155.76 153.15 155.63 153.22
  L 153.18 154.43
  C 152.81 154.62 152.63 154.92 152.64 155.33
  C 152.66 155.90 152.37 156.28 151.78 156.47
  C 151.71 156.49 151.66 156.54 151.63 156.61
  C 151.59 156.70 151.57 156.80 151.58 156.89
  C 151.59 157.12 151.71 157.18 151.92 157.09
  C 152.13 157.00 152.31 156.87 152.46 156.70
  C 152.52 156.63 152.59 156.57 152.66 156.52"
/>
<path stroke="#d3ffff" fill="none" stroke-width="1.00" vector-effect="non-scaling-stroke" d="
  M 426.58 138.25
  L 422.31 139.03"
/>
<path stroke="#8fffff" fill="none" stroke-width="1.00" vector-effect="non-scaling-stroke" d="
  M 147.90 168.89
  C 148.28 168.50 148.57 168.60 148.78 169.20
  C 148.88 169.47 149.05 169.68 149.30 169.83
  L 149.58 169.99"
/>
<path stroke="#ffff7d" fill="none" stroke-width="1.00" vector-effect="non-scaling-stroke" d="
  M 187.22 439.59
  C 187.25 439.58 187.28 439.57 187.31 439.54
  C 187.41 439.44 187.40 439.36 187.27 439.30
  C 183.52 437.50 179.79 435.64 176.10 433.72
  C 176.04 433.69 174.45 432.92 171.33 431.41
  C 169.54 430.55 167.70 429.31 165.82 427.70
  C 165.29 427.25 164.69 427.02 164.01 426.99
  C 163.37 426.96 163.34 427.09 163.92 427.36
  C 164.88 427.81 165.69 428.49 166.35 429.38
  C 166.40 429.44 166.39 429.45 166.32 429.41
  C 165.10 428.67 163.93 427.85 162.81 426.95
  C 161.65 426.03 160.47 425.23 159.27 424.55
  C 155.95 422.68 152.60 420.86 149.22 419.10
  C 148.58 418.76 147.95 418.88 147.26 418.90
  C 146.92 418.91 146.60 418.83 146.31 418.66
  C 143.08 416.82 139.75 415.10 136.32 413.50
  C 135.47 413.10 134.64 412.67 133.85 412.22
  C 133.14 411.81 132.40 411.44 131.63 411.13
  C 130.06 410.48 128.62 409.51 127.32 408.22
  C 126.25 407.15 125.01 406.36 123.61 405.85
  C 122.80 405.55 122.08 405.08 121.46 404.43
  C 120.75 403.68 119.82 403.14 118.68 402.80
  C 117.73 402.51 116.86 402.03 116.08 401.36
  C 115.30 400.68 114.42 400.13 113.45 399.70
  C 112.68 399.36 111.99 398.92 111.36 398.39
  C 110.69 397.82 109.91 397.42 109.00 397.18
  C 108.66 397.09 108.36 396.92 108.11 396.67
  C 107.34 395.91 106.49 395.30 105.56 394.84
  C 105.27 394.69 105.04 394.49 104.85 394.23
  C 104.48 393.72 104.02 393.44 103.47 393.40
  C 103.12 393.37 102.82 393.22 102.59 392.95
  C 102.00 392.26 101.28 391.84 100.45 391.67
  C 99.64 391.51 98.84 391.19 98.05 390.71
  C 93.18 387.72 90.07 385.84 88.70 385.06
  C 88.25 384.81 87.92 384.52 87.70 384.21
  C 87.46 383.86 87.15 383.59 86.76 383.41
  C 83.18 381.71 80.27 379.72 78.02 377.45
  C 73.58 372.98 68.84 367.14 67.32 360.95
  C 65.74 354.53 65.29 347.93 65.59 341.21
  C 65.88 334.59 65.30 328.15 65.66 321.47
  C 65.90 316.86 65.98 312.25 65.91 307.62
  C 65.88 305.85 66.14 304.18 66.14 302.25
  C 66.13 292.96 66.07 284.12 65.98 275.75
  C 65.91 269.56 65.71 262.90 65.38 255.78
  C 65.03 248.27 64.94 240.73 65.09 233.16
  C 65.16 230.15 65.34 227.24 65.64 224.42
  C 65.95 221.53 66.01 218.59 65.84 215.60
  C 65.68 212.72 66.69 210.16 67.28 207.43
  C 67.42 206.81 68.08 206.46 68.67 206.70
  C 70.53 207.45 72.43 208.13 74.37 208.73
  C 76.26 209.31 78.07 210.09 79.80 211.07
  C 81.81 212.22 83.92 213.24 86.11 214.12
  C 89.45 215.46 92.62 217.18 95.86 218.71
  C 96.29 218.92 96.74 219.06 97.20 219.14
  C 97.66 219.22 98.04 219.44 98.34 219.81
  C 98.57 220.10 98.86 220.30 99.20 220.41
  L 101.73 221.26
  C 102.04 221.36 102.29 221.53 102.50 221.78
  C 102.73 222.05 103.03 222.18 103.39 222.16
  C 103.73 222.14 104.04 222.23 104.33 222.42
  L 112.49 227.94
  C 112.69 228.08 112.91 228.14 113.16 228.13
  C 113.44 228.12 113.83 228.25 114.05 228.43
  C 116.58 230.46 119.36 232.15 122.41 233.51
  C 122.46 233.53 122.50 233.57 122.52 233.63
  C 122.56 233.72 122.61 233.80 122.67 233.89
  C 122.78 234.05 122.96 234.15 123.16 234.17
  C 124.28 234.27 125.29 234.65 126.19 235.31
  C 126.76 235.74 127.39 236.09 128.07 236.38
  C 129.27 236.87 130.50 237.70 131.76 238.86
  C 132.69 239.73 134.31 240.62 136.61 241.54
  C 137.43 241.87 138.37 242.59 139.11 243.14
  C 139.70 243.57 140.34 243.94 141.03 244.26
  C 142.64 245.01 144.24 245.92 145.81 246.98
  C 146.36 247.35 146.94 247.62 147.56 247.79
  C 148.36 248.02 148.98 248.57 149.41 249.44
  C 149.54 249.71 149.73 249.92 149.98 250.07
  L 152.74 251.78
  C 152.89 251.87 153.00 252.00 153.08 252.16
  C 153.18 252.37 153.35 252.45 153.59 252.40
  C 154.04 252.29 154.43 252.39 154.78 252.69
  C 155.52 253.32 156.35 253.80 157.26 254.15
  C 159.27 254.92 161.10 256.07 162.76 257.59
  C 163.67 258.43 164.66 259.18 165.73 259.83
  C 166.74 260.45 167.73 261.09 168.71 261.75
  C 169.76 262.46 170.86 263.09 172.01 263.64
  C 173.30 264.25 174.38 264.89 175.27 265.54
  C 176.49 266.43 177.68 267.27 178.85 268.06
  C 179.97 268.81 181.29 269.47 182.80 270.06
  C 184.53 270.73 186.27 271.49 188.02 272.33
  C 189.23 272.91 190.38 273.59 191.45 274.37
  C 193.03 275.52 194.12 276.27 194.73 276.62
  C 195.70 277.18 196.64 277.72 197.55 278.23
  C 198.18 278.58 198.72 279.05 199.15 279.63
  C 199.60 280.22 200.00 280.80 200.37 281.37
  C 200.53 281.62 200.60 281.92 200.57 282.21
  C 200.50 282.87 200.70 283.40 201.17 283.79
  C 201.33 283.92 201.46 284.08 201.55 284.26
  C 202.60 286.32 204.14 289.13 202.86 291.34
  C 201.99 292.84 200.92 294.37 199.65 295.92
  C 199.13 296.56 198.48 296.88 197.70 296.87
  C 197.37 296.87 197.08 296.96 196.81 297.14
  C 194.90 298.41 192.79 299.50 190.48 300.41
  C 189.65 300.74 188.88 301.15 188.15 301.64
  C 187.35 302.19 186.51 302.65 185.63 303.03
  C 183.27 304.04 181.11 305.61 179.14 307.76
  C 177.79 309.24 176.03 309.21 174.56 310.41
  C 173.91 310.94 173.28 311.35 172.66 311.64
  C 169.94 312.93 167.38 314.44 164.99 316.17
  C 163.02 317.59 160.99 318.95 158.90 320.26
  C 156.29 321.90 153.74 323.60 151.23 325.36
  C 150.00 326.22 148.63 326.82 147.10 327.16
  C 145.69 327.48 144.25 327.89 142.77 328.39
  C 142.14 328.60 141.62 328.97 141.23 329.48
  C 139.66 331.53 137.47 333.17 135.46 334.82
  C 135.20 335.03 135.04 335.29 134.98 335.62
  C 134.34 338.87 134.69 342.01 136.03 345.02
  C 136.09 345.15 136.11 345.15 136.10 345.01
  C 136.01 343.88 135.76 342.81 135.37 341.80
  C 135.00 340.85 134.80 340.12 134.77 339.63
  C 134.71 338.60 134.87 337.75 135.25 337.08
  C 135.56 336.53 135.67 336.57 135.57 337.19
  C 135.30 338.89 135.38 340.16 135.83 341.00
  C 136.28 341.85 136.64 342.76 136.58 343.74
  C 136.51 344.86 137.48 345.77 138.59 345.62
  C 140.07 345.43 141.38 345.70 142.52 346.44
  C 147.20 349.47 151.89 352.54 156.59 355.65
  C 158.58 356.97 160.76 357.87 162.78 359.14
  C 168.77 362.90 174.71 367.21 181.10 370.14
  C 186.78 372.74 191.93 376.03 197.55 378.67
  C 199.88 379.76 202.08 380.99 204.15 382.38
  C 206.30 383.82 208.56 384.99 210.93 385.89
  C 212.98 386.66 214.98 387.78 216.93 389.25
  C 217.28 389.51 217.67 389.65 218.11 389.67
  C 218.60 389.69 219.05 389.81 219.48 390.02
  C 221.94 391.23 224.59 392.52 227.36 392.79
  C 228.70 392.92 229.99 393.59 231.23 394.80
  C 231.51 395.08 231.89 395.25 232.28 395.29
  C 233.35 395.40 233.93 395.00 234.01 394.07
  C 234.21 391.65 234.28 389.37 234.23 387.22
  C 234.01 378.08 233.95 369.00 233.46 359.86
  C 233.28 356.49 233.30 353.21 233.51 350.02
  C 233.62 348.37 233.52 346.73 233.21 345.10
  C 232.55 341.67 233.13 338.45 233.13 335.05
  C 233.12 323.61 233.12 312.17 233.13 300.72
  C 233.13 300.46 233.08 300.21 232.99 299.97
  C 232.94 299.82 232.91 299.66 232.90 299.49
  C 232.87 292.37 232.87 285.55 232.88 279.02
  C 232.88 278.22 232.74 277.40 232.45 276.55
  C 232.17 275.71 231.92 274.90 231.70 274.13
  C 231.62 273.86 231.49 273.63 231.32 273.45
  C 230.80 272.93 230.42 272.46 230.13 271.78
  C 229.34 269.96 228.11 268.48 226.43 267.35
  C 226.34 267.29 226.26 267.30 226.19 267.39
  L 226.19 267.39
  C 226.12 267.48 226.12 267.56 226.20 267.65
  C 228.49 270.02 230.15 272.55 231.20 275.22
  C 231.94 277.11 232.17 279.19 231.90 281.48
  C 231.59 284.10 231.51 286.64 231.66 289.09
  C 231.66 289.14 231.62 289.18 231.57 289.18
  L 231.32 289.17
  C 231.17 289.17 231.09 289.09 231.10 288.94
  C 231.18 285.81 231.14 282.67 230.99 279.52
  C 230.95 278.69 230.68 277.96 230.18 277.34
  C 229.44 276.43 229.80 275.66 229.33 274.76
  C 227.11 270.53 224.14 267.80 220.43 266.57
  C 219.19 266.16 218.26 265.21 216.96 264.79
  C 216.10 264.50 215.25 264.14 214.42 263.69
  C 211.79 262.29 209.02 261.02 206.12 259.87
  C 205.79 259.74 205.51 259.53 205.27 259.24
  C 204.97 258.89 204.59 258.62 204.14 258.45
  C 199.80 256.81 195.63 255.11 191.62 253.34
  C 190.11 252.67 188.62 251.59 187.17 250.10
  C 186.93 249.86 186.64 249.68 186.31 249.59
  C 185.13 249.24 184.07 248.66 183.12 247.84
  C 182.46 247.27 181.80 247.34 181.09 246.77
  C 180.20 246.06 179.34 245.40 178.49 244.79
  C 177.63 244.16 176.59 243.55 175.38 242.97
  C 173.57 242.10 171.84 241.08 170.18 239.89
  C 169.90 239.70 169.59 239.58 169.25 239.54
  C 168.78 239.49 168.40 239.30 168.09 238.95
  C 167.82 238.64 167.52 238.39 167.17 238.20
  C 164.31 236.58 161.76 234.77 159.52 232.78
  C 158.77 232.11 157.96 231.50 157.10 230.94
  C 156.25 230.39 155.52 229.77 154.89 229.10
  C 154.12 228.28 153.21 227.69 152.18 227.33
  C 151.30 227.02 150.50 226.59 149.77 226.04
  C 148.22 224.85 146.68 223.95 145.16 223.36
  C 144.01 222.91 142.92 222.19 141.87 221.19
  C 139.80 219.20 137.63 217.60 135.38 216.39
  C 133.50 215.38 132.05 214.58 131.03 213.99
  C 130.52 213.70 130.55 213.51 131.14 213.43
  C 131.62 213.36 131.94 213.53 132.11 213.93
  C 132.22 214.20 132.43 214.36 132.72 214.39
  L 133.77 214.51
  C 134.40 214.58 134.46 214.43 133.93 214.08
  C 131.58 212.48 129.00 211.00 126.20 209.63
  C 125.13 209.11 124.75 208.14 123.62 207.76
  C 122.89 207.51 122.19 207.17 121.51 206.74
  C 120.55 206.13 119.56 205.56 118.53 205.05
  C 118.33 204.95 118.16 204.81 118.03 204.64
  C 117.80 204.36 117.78 204.06 117.95 203.75
  C 118.06 203.54 118.03 203.37 117.84 203.22
  C 115.68 201.49 113.31 200.28 110.73 199.59
  C 110.44 199.51 110.12 199.19 110.04 198.90
  C 109.96 198.60 109.70 198.39 109.40 198.35
  C 107.17 198.08 105.22 197.45 103.57 196.44
  C 102.00 195.49 100.37 194.83 98.70 194.46
  C 98.40 194.39 98.11 194.26 97.85 194.08
  C 97.16 193.60 96.44 193.25 95.68 193.02
  C 95.36 192.92 95.08 192.75 94.85 192.50
  C 94.03 191.65 92.94 191.78 91.93 191.22
  C 91.14 190.78 90.39 190.28 89.68 189.71
  C 88.92 189.12 88.10 188.63 87.22 188.26
  C 84.41 187.08 81.49 185.70 78.46 184.13
  C 77.47 183.62 76.63 182.97 75.92 182.18
  C 75.71 181.95 75.47 181.77 75.18 181.66
  C 73.65 181.03 72.29 180.02 71.12 178.61
  C 70.90 178.34 70.60 178.16 70.26 178.08
  C 69.62 177.94 69.14 177.56 68.83 176.95
  C 68.67 176.65 68.42 176.40 68.12 176.22
  C 66.85 175.49 66.17 175.07 66.07 174.98
  C 65.00 174.02 63.81 173.21 62.54 172.56
  C 61.75 172.15 60.85 171.65 59.84 171.06
  C 58.83 170.47 57.78 170.45 56.74 169.82
  C 55.98 169.35 55.17 168.98 54.30 168.69
  C 50.84 167.51 47.69 166.76 44.86 166.45
  C 43.01 166.25 41.15 166.26 39.26 166.49
  C 38.81 166.55 38.61 166.80 38.64 167.24
  C 38.66 167.59 38.60 167.92 38.46 168.24
  C 37.57 170.25 37.12 172.42 37.10 174.75
  C 37.07 178.10 37.10 181.46 37.17 184.81
  C 37.18 185.28 37.32 185.96 37.61 186.85
  C 37.84 187.56 37.93 188.26 37.89 188.94
  C 37.78 191.06 37.92 193.48 38.31 196.21
  C 38.61 198.30 38.77 200.52 38.78 202.86
  C 38.85 212.65 39.05 222.72 39.38 233.08
  C 39.41 234.07 39.52 235.04 39.70 235.99
  C 39.89 237.02 39.94 238.08 39.84 239.17
  C 39.50 242.96 40.04 246.46 39.70 250.21
  C 39.55 251.90 40.04 253.48 39.85 255.21
  C 39.72 256.40 39.67 257.61 39.72 258.82
  C 39.84 261.75 39.90 264.69 39.90 267.64
  C 39.90 270.43 39.98 273.35 40.15 276.38
  C 40.42 281.13 40.50 286.19 40.39 291.54
  C 40.37 292.51 40.18 293.77 39.81 295.34
  C 39.45 296.86 39.47 298.26 39.86 299.53
  C 40.13 300.42 40.29 301.34 40.32 302.27
  C 40.35 303.08 40.46 303.92 40.64 304.78
  C 41.42 308.52 41.87 312.72 42.00 317.37
  C 42.15 322.74 42.13 328.33 41.95 334.14
  C 41.87 336.75 41.64 339.64 41.27 342.81
  C 40.96 345.43 40.91 348.33 41.10 351.51
  C 41.20 353.18 40.18 354.70 40.05 356.43
  C 39.78 359.72 39.59 362.81 39.46 365.70
  C 39.41 366.97 39.46 368.41 39.61 370.04
  C 39.72 371.23 39.38 372.06 40.06 373.23
  C 41.09 374.97 42.35 376.57 43.84 378.03
  C 46.13 380.27 48.61 382.59 51.28 384.99
  C 51.36 385.06 51.46 385.10 51.57 385.11
  C 51.84 385.12 52.05 385.25 52.20 385.48
  C 52.83 386.50 53.70 387.21 54.83 387.60
  C 55.15 387.71 55.42 387.92 55.59 388.20
  C 55.86 388.63 56.21 388.95 56.65 389.16
  C 57.26 389.45 57.82 389.83 58.33 390.30
  C 59.44 391.31 60.68 392.14 62.03 392.81
  C 62.88 393.23 63.64 393.74 64.30 394.35
  C 65.07 395.06 65.93 395.60 66.88 395.97
  C 70.43 397.39 73.64 399.20 76.51 401.41
  C 77.39 402.08 78.37 402.54 79.46 402.78
  C 80.95 403.11 82.28 403.69 83.44 404.51
  C 84.87 405.51 86.37 406.30 87.96 406.88
  C 89.57 407.47 91.26 408.57 93.03 410.20
  C 93.21 410.37 93.45 410.48 93.70 410.51
  C 94.17 410.56 94.51 410.81 94.71 411.27
  C 94.81 411.51 94.99 411.71 95.21 411.84
  L 97.60 413.26
  C 97.86 413.41 98.05 413.62 98.18 413.89
  C 98.33 414.22 98.59 414.38 98.96 414.38
  C 99.33 414.37 99.67 414.46 100.00 414.64
  C 102.77 416.15 105.17 417.95 107.21 420.04
  C 107.80 420.64 107.88 421.54 109.09 421.81
  C 109.42 421.88 109.72 422.05 109.95 422.30
  C 110.39 422.77 110.85 423.19 111.34 423.56
  C 112.48 424.42 113.81 424.16 114.76 425.42
  C 114.89 425.60 115.07 425.68 115.29 425.66
  C 115.50 425.64 115.69 425.67 115.87 425.76
  C 120.81 428.07 125.44 430.81 129.77 433.96
  C 130.08 434.19 130.36 434.47 130.59 434.79
  C 130.77 435.04 131.01 435.17 131.32 435.18
  C 131.74 435.20 132.04 435.40 132.23 435.78
  C 132.36 436.05 132.57 436.23 132.86 436.32
  C 133.65 436.53 134.39 436.87 135.10 437.34
  C 137.40 438.85 139.66 440.25 141.89 441.54
  C 142.14 441.69 142.34 441.88 142.50 442.13
  C 142.66 442.38 142.89 442.47 143.18 442.40
  C 143.51 442.33 143.84 442.36 144.15 442.48
  L 146.26 443.32
  C 146.49 443.41 146.65 443.58 146.73 443.82
  C 146.81 444.06 146.99 444.17 147.26 444.14
  C 147.49 444.11 147.71 444.16 147.92 444.28
  C 150.82 445.91 153.57 447.52 156.18 449.13
  C 157.38 449.87 158.69 450.54 160.11 451.15
  C 162.64 452.23 164.97 453.95 167.73 454.31
  C 168.07 454.36 168.37 454.50 168.62 454.73
  C 169.47 455.50 170.30 456.21 171.13 456.86
  C 172.71 458.10 174.70 458.56 176.51 459.51
  C 177.30 459.92 178.14 460.22 179.04 460.43
  C 181.93 461.10 184.55 462.32 186.91 464.09
  C 186.94 464.12 186.98 464.13 187.02 464.13
  L 187.44 464.13
  C 187.65 464.13 187.83 464.27 187.89 464.48
  C 188.02 464.93 188.31 465.15 188.77 465.14
  C 189.08 465.13 189.35 465.22 189.60 465.40
  C 190.66 466.17 191.83 466.83 193.10 467.37
  C 194.27 467.87 195.39 468.47 196.47 469.18
  C 197.74 470.01 199.18 470.66 200.79 471.11
  C 201.10 471.20 201.37 471.36 201.60 471.59
  C 202.48 472.50 203.51 473.17 204.69 473.61
  C 205.89 474.06 206.99 474.68 208.00 475.47
  C 209.66 476.77 211.51 477.37 213.08 478.89
  C 215.39 481.14 217.98 483.15 220.83 484.91
  C 221.11 485.08 221.34 485.31 221.51 485.59
  C 222.00 486.38 222.70 486.83 223.61 486.96
  C 224.73 487.11 225.85 487.37 226.96 487.73
  C 228.78 488.33 230.58 488.23 232.41 487.95
  C 233.24 487.82 233.81 487.05 233.69 486.22
  C 233.47 484.73 233.37 483.29 233.38 481.88
  C 233.39 480.65 233.26 479.34 232.99 477.95
  C 232.44 475.16 231.90 472.35 231.35 469.50
  C 231.14 468.39 230.59 466.83 229.70 464.84
  C 228.95 463.16 228.03 461.94 226.92 461.18
  C 224.35 459.41 221.64 458.16 218.78 457.44
  C 217.26 457.06 216.22 456.11 214.80 455.56
  C 213.77 455.16 212.78 454.69 211.82 454.14
  C 210.33 453.29 208.88 452.48 207.45 451.70
  C 205.98 450.89 204.59 449.99 203.27 449.00
  C 201.78 447.88 200.28 446.75 198.77 445.61
  C 197.40 444.58 195.75 443.70 193.82 442.97
  C 191.81 442.22 189.96 441.19 188.27 439.86
  C 188.12 439.75 187.96 439.68 187.77 439.65
  C 187.59 439.63 187.41 439.63 187.24 439.64
  C 187.09 439.65 187.08 439.64 187.22 439.59"
/>
<path stroke="#ffff7d" fill="none" stroke-width="1.00" vector-effect="non-scaling-stroke" d="
  M 188.60 439.46
  L 191.85 441.58
  C 192.07 441.73 192.12 441.68 192.01 441.44
  C 191.81 441.03 191.49 440.78 191.04 440.70
  C 190.67 440.63 190.39 440.44 190.18 440.13
  C 189.85 439.62 189.35 439.32 188.69 439.22
  C 188.30 439.16 188.27 439.24 188.60 439.46"
/>
</svg>
