<?xml version="1.0" standalone="no"?>
<!DOCTYPE svg PUBLIC "-//W3C//DTD SVG 20010904//EN"
 "http://www.w3.org/TR/2001/REC-SVG-20010904/DTD/svg10.dtd">
<svg version="1.0" xmlns="http://www.w3.org/2000/svg"
 width="512.000000pt" height="512.000000pt" viewBox="0 0 512.000000 512.000000"
 preserveAspectRatio="xMidYMid meet">
<metadata>
Created by potrace 1.14, written by Peter Selinger 2001-2017
</metadata>
<g transform="translate(0.000000,512.000000) scale(0.100000,-0.100000)"
fill="#000000" stroke="none">
<path d="M2503 5101 c-12 -11 -23 -18 -26 -15 -2 3 -15 -6 -28 -20 -19 -20
-27 -22 -38 -13 -11 9 -13 9 -8 0 4 -7 -5 -16 -23 -25 -16 -7 -30 -16 -30 -20
0 -5 -6 -8 -12 -8 -7 0 -33 -13 -57 -29 -25 -17 -48 -28 -53 -25 -4 3 -8 -2
-8 -11 0 -9 -4 -13 -10 -10 -5 3 -20 -3 -32 -14 -12 -12 -28 -21 -35 -21 -7 0
-13 -4 -13 -10 0 -5 -6 -10 -14 -10 -7 0 -19 -7 -26 -15 -7 -8 -16 -12 -21 -9
-5 3 -9 0 -9 -5 0 -6 -7 -11 -15 -11 -9 0 -18 -7 -21 -15 -4 -8 -10 -12 -15
-9 -5 3 -9 0 -9 -6 0 -6 -4 -8 -10 -5 -5 3 -10 1 -10 -5 0 -6 -4 -9 -9 -6 -4
3 -23 -6 -41 -19 -19 -14 -38 -25 -43 -25 -4 0 -15 -7 -24 -15 -8 -8 -18 -13
-23 -10 -4 3 -10 -2 -14 -10 -3 -8 -10 -15 -17 -15 -6 0 -24 -9 -40 -21 -16
-11 -29 -17 -29 -12 0 4 -5 0 -11 -9 -5 -10 -19 -18 -29 -18 -11 0 -20 -5 -20
-12 0 -6 -3 -9 -6 -5 -3 3 -15 -3 -27 -14 -11 -10 -27 -19 -34 -19 -7 0 -13
-4 -13 -10 0 -5 -3 -10 -7 -9 -16 2 -53 -14 -53 -22 0 -5 -5 -9 -11 -9 -6 0
-24 -9 -40 -21 -16 -11 -29 -17 -29 -13 0 4 -7 -1 -15 -12 -8 -10 -15 -16 -15
-11 0 9 -82 -41 -92 -57 -5 -8 -8 -7 -8 1 0 9 -7 7 -20 -5 -19 -16 -93 -59
-167 -98 -18 -9 -33 -21 -33 -26 0 -5 -4 -7 -10 -3 -5 3 -18 -3 -30 -15 -11
-11 -26 -20 -34 -20 -7 0 -19 -7 -26 -15 -7 -8 -16 -12 -21 -9 -5 3 -9 1 -9
-5 0 -5 -10 -13 -22 -17 -13 -4 -28 -14 -35 -23 -7 -9 -13 -12 -13 -8 0 4 -17
-4 -37 -18 -21 -14 -41 -25 -46 -25 -5 0 -28 -13 -52 -30 -24 -16 -48 -30 -54
-30 -5 0 -15 -8 -20 -17 -6 -10 -11 -14 -11 -10 0 5 -13 -1 -29 -12 -16 -12
-32 -21 -35 -21 -4 0 -16 -9 -28 -20 -12 -10 -25 -17 -30 -14 -4 3 -8 0 -8 -5
0 -6 -7 -11 -16 -11 -8 0 -12 -4 -9 -10 3 -5 2 -10 -4 -10 -18 0 0 -28 22 -35
12 -4 25 -7 30 -6 4 1 7 -4 7 -11 0 -6 3 -8 6 -5 4 4 19 -2 34 -13 16 -11 31
-20 34 -20 4 0 20 -10 35 -21 16 -12 34 -19 39 -15 5 3 12 0 15 -8 3 -8 22
-19 41 -26 20 -6 36 -16 36 -21 0 -5 10 -9 23 -9 13 0 29 -6 36 -12 9 -9 12
-9 7 -1 -3 7 2 14 14 18 11 3 20 11 20 16 0 6 5 7 10 4 6 -3 13 1 16 9 3 9 10
14 14 11 5 -3 11 -1 15 5 4 6 11 8 16 5 5 -4 9 -1 9 5 0 5 16 18 35 27 19 9
35 21 35 25 0 5 4 7 9 4 5 -3 14 1 21 9 7 8 19 15 26 15 8 0 14 5 14 10 0 6 6
10 14 10 7 0 19 7 26 15 7 8 21 15 32 15 10 0 16 5 13 10 -3 6 3 10 14 10 12
0 21 5 21 10 0 6 7 10 15 10 8 0 15 4 15 8 0 9 59 36 77 35 7 0 11 2 9 6 -5 8
15 25 34 29 8 2 18 8 21 14 3 5 10 10 15 10 17 1 54 21 54 30 0 4 7 8 15 8 8
0 24 9 35 20 11 11 21 20 23 19 8 -2 57 22 57 29 0 5 6 9 13 9 6 0 35 13 62
30 28 16 82 47 120 68 39 21 72 41 75 44 3 4 21 15 40 24 19 10 53 28 75 42
22 13 58 34 80 46 22 12 58 33 80 48 22 14 43 25 47 26 4 0 16 7 26 15 10 8
25 16 33 18 7 2 16 7 19 10 7 10 60 41 100 59 19 8 40 22 48 32 10 11 11 12 6
1 -6 -11 -2 -10 13 3 11 9 26 17 33 17 7 0 10 3 6 7 -3 4 8 12 26 18 27 8 35
8 46 -5 12 -13 12 -13 6 0 -5 8 7 3 25 -12 18 -16 39 -28 47 -28 8 0 14 -5 14
-11 0 -5 5 -7 10 -4 6 3 10 2 10 -4 0 -5 16 -15 35 -22 19 -7 35 -17 35 -22 0
-4 4 -6 9 -3 5 4 11 2 13 -2 4 -10 109 -71 122 -70 5 0 12 -4 15 -9 9 -13 85
-58 94 -55 4 1 7 -2 7 -6 0 -5 18 -17 40 -27 22 -10 40 -22 40 -27 0 -5 5 -6
10 -3 6 3 10 1 10 -4 0 -6 7 -11 15 -11 8 0 15 -5 15 -11 0 -5 4 -8 9 -4 6 3
14 -3 20 -12 6 -10 11 -14 11 -10 0 5 13 -1 29 -12 15 -11 31 -18 35 -14 3 3
6 1 6 -6 0 -7 4 -10 9 -7 5 3 12 -1 15 -10 3 -8 10 -13 15 -9 6 3 14 -3 20
-12 6 -10 11 -14 11 -10 0 5 13 -1 29 -12 16 -12 34 -21 40 -21 6 0 11 -5 11
-11 0 -5 4 -8 8 -5 5 3 19 -4 31 -15 12 -12 28 -22 34 -23 7 -1 30 -13 52 -27
22 -14 56 -34 75 -45 19 -10 37 -22 38 -27 2 -4 8 -5 13 -1 5 3 12 -2 15 -10
3 -9 10 -14 14 -11 5 3 15 -1 23 -9 8 -8 17 -12 21 -9 3 4 6 1 6 -5 0 -7 7
-12 15 -12 9 0 23 -6 31 -12 34 -29 40 -33 54 -36 19 -4 33 -26 20 -30 -6 -2
-8 -8 -5 -13 3 -4 -6 -11 -20 -15 -14 -3 -25 -10 -25 -15 0 -5 -6 -9 -14 -9
-8 0 -21 -6 -28 -13 -7 -7 -34 -24 -60 -37 -27 -13 -48 -28 -48 -32 0 -5 -4
-7 -9 -3 -5 3 -16 -1 -24 -9 -8 -8 -17 -12 -21 -9 -3 3 -8 -2 -12 -11 -3 -9
-10 -14 -14 -11 -5 3 -15 -2 -23 -10 -9 -8 -20 -15 -25 -15 -5 0 -21 -9 -36
-21 -14 -11 -26 -18 -26 -14 0 4 -7 0 -15 -7 -32 -29 -45 -39 -45 -34 0 3 -25
-10 -55 -29 -30 -19 -58 -35 -64 -35 -5 0 -11 -5 -13 -12 -2 -6 -13 -12 -24
-13 -11 0 -31 -11 -44 -23 -13 -12 -28 -22 -33 -22 -4 0 -28 -14 -53 -30 -24
-17 -44 -27 -44 -23 0 4 -4 2 -9 -5 -4 -7 -16 -14 -25 -16 -10 -1 -21 -7 -24
-12 -7 -10 -27 -20 -45 -23 -4 0 -16 -9 -28 -19 -11 -11 -37 -28 -59 -38 -22
-10 -40 -22 -40 -26 0 -5 -4 -8 -9 -8 -6 0 -37 -16 -70 -35 -33 -20 -62 -34
-65 -33 -2 2 -13 -5 -23 -15 -11 -9 -23 -14 -26 -10 -4 3 -7 1 -7 -5 0 -7 -7
-12 -15 -12 -8 0 -15 -5 -15 -11 0 -5 -4 -7 -10 -4 -5 3 -10 3 -10 -2 0 -4
-11 -13 -25 -20 -14 -6 -23 -7 -19 -2 3 5 -1 9 -8 9 -8 0 -9 3 -3 8 14 10 17
32 4 32 -8 0 -8 5 1 15 10 12 10 15 -1 15 -9 0 -10 3 -4 8 14 10 17 32 4 32
-8 0 -8 5 1 15 10 12 10 15 -1 15 -12 0 -12 2 0 9 9 6 10 11 2 15 -6 4 -8 13
-4 19 12 19 12 36 2 43 -6 4 -6 11 1 19 8 9 8 15 0 20 -6 3 -7 12 -3 18 12 19
12 37 1 37 -6 0 -5 7 3 16 10 13 10 17 -2 25 -8 5 -9 9 -2 9 12 0 12 17 0 36
-3 6 -4 14 0 18 12 12 12 56 0 56 -8 0 -8 3 -2 8 12 8 13 22 3 38 -4 6 -4 14
-1 18 12 12 11 56 -1 56 -7 0 -7 3 -1 8 15 11 17 32 2 32 -9 0 -9 2 1 9 8 4
14 12 14 16 0 4 -6 12 -14 16 -11 7 -11 9 1 9 10 0 11 3 2 14 -9 10 -9 16 -1
21 6 4 7 12 3 18 -7 11 -9 33 -3 47 7 20 7 40 -2 40 -6 0 -5 6 2 15 10 12 10
15 -1 15 -12 0 -12 2 0 9 9 6 10 11 2 15 -6 4 -8 13 -4 19 13 21 13 58 0 50
-7 -4 -6 0 2 10 9 11 10 17 2 17 -6 0 -11 7 -11 16 0 14 -3 14 -15 4 -8 -7
-15 -9 -15 -4 0 5 -7 -2 -16 -14 -8 -12 -23 -22 -33 -22 -11 0 -22 -7 -25 -16
-3 -8 -10 -13 -15 -10 -5 4 -11 3 -13 -2 -4 -11 -101 -67 -110 -64 -5 1 -8 -2
-8 -7 0 -5 -13 -14 -30 -21 -16 -7 -27 -16 -25 -21 3 -4 -4 -6 -15 -4 -11 2
-20 0 -20 -5 0 -13 -56 -41 -65 -32 -5 4 -5 2 -2 -4 4 -7 -3 -14 -16 -18 -12
-3 -32 -15 -45 -26 -12 -11 -22 -16 -22 -10 0 5 -9 1 -20 -10 -11 -11 -25 -20
-30 -20 -6 0 -20 -9 -32 -20 -12 -10 -25 -17 -30 -14 -4 3 -8 0 -8 -5 0 -6 -7
-11 -15 -11 -7 0 -19 -8 -24 -17 -8 -13 -10 -14 -11 -4 0 11 -6 8 -20 -7 -12
-12 -27 -22 -35 -22 -8 0 -15 -5 -15 -11 0 -5 -4 -7 -10 -4 -5 3 -10 1 -10 -4
0 -6 -5 -11 -12 -11 -6 0 -26 -11 -44 -25 -18 -14 -38 -25 -44 -25 -7 0 -23
-9 -37 -20 -14 -11 -32 -20 -39 -20 -8 0 -14 -5 -14 -11 0 -5 -4 -7 -10 -4 -5
3 -10 1 -10 -4 0 -6 -7 -11 -15 -11 -8 0 -15 -4 -15 -10 0 -5 -5 -10 -11 -10
-6 0 -24 -9 -40 -21 -16 -11 -29 -17 -29 -13 0 4 -7 -1 -15 -12 -8 -10 -15
-15 -15 -11 0 5 -7 1 -16 -7 -8 -9 -22 -16 -30 -16 -8 0 -14 -4 -14 -10 0 -5
-7 -10 -15 -10 -9 0 -18 -7 -21 -15 -4 -8 -9 -13 -13 -11 -4 3 -13 1 -20 -3
-8 -6 -3 -12 18 -21 17 -7 31 -16 31 -21 0 -5 9 -9 20 -9 11 0 25 -9 32 -19 6
-10 17 -17 23 -15 7 3 18 -2 25 -11 7 -8 21 -15 31 -15 11 0 19 -4 19 -10 0
-5 6 -10 13 -10 7 0 22 -8 33 -17 11 -10 26 -19 34 -21 7 -2 26 -12 41 -23 15
-10 32 -19 38 -19 6 0 11 -5 11 -11 0 -5 5 -7 10 -4 6 3 10 3 10 -2 0 -4 34
-26 75 -48 41 -22 75 -43 75 -47 0 -5 9 -8 20 -8 11 0 20 -4 20 -10 0 -5 7
-10 15 -10 8 0 15 -5 15 -11 0 -5 4 -8 9 -4 5 3 15 -1 23 -8 7 -8 40 -29 73
-47 33 -18 71 -40 85 -49 14 -9 42 -25 62 -35 21 -10 35 -23 32 -28 -3 -5 -2
-7 3 -6 15 4 53 -13 53 -24 0 -6 3 -9 6 -5 3 3 25 -6 47 -20 22 -14 56 -32 74
-39 18 -8 33 -19 33 -26 0 -6 3 -8 6 -5 4 4 19 -2 34 -13 15 -11 30 -17 34
-13 3 3 6 1 6 -5 0 -6 7 -9 15 -6 8 4 15 1 15 -4 0 -6 8 -12 18 -14 22 -5 72
11 72 24 0 5 5 6 10 3 6 -3 10 -1 10 5 0 6 5 8 10 5 6 -3 10 -1 10 4 0 6 7 11
15 11 8 0 15 5 15 11 0 5 5 7 10 4 6 -3 13 1 16 9 3 9 10 14 14 11 5 -3 22 6
39 20 16 15 34 26 38 27 4 0 24 10 43 22 19 12 47 28 63 35 15 8 27 18 27 23
0 4 6 8 14 8 7 0 25 9 38 20 14 10 28 16 32 13 3 -3 6 0 6 7 0 7 3 10 6 7 4
-4 19 2 34 13 16 11 33 20 39 20 6 0 11 5 11 10 0 6 7 10 15 10 8 0 15 5 15
10 0 6 6 10 14 10 8 0 22 7 30 16 9 8 16 13 16 9 0 -3 15 4 33 17 17 13 36 23
40 23 4 0 11 6 16 13 5 8 10 13 12 13 14 -2 49 13 49 21 0 5 5 6 10 3 6 -3 10
-2 10 4 0 5 10 13 23 17 12 4 24 9 27 13 3 3 30 19 60 35 30 16 60 34 65 41 6
6 15 10 20 8 6 -2 20 5 31 14 31 28 80 53 89 45 5 -4 5 -1 1 6 -4 7 -1 12 8
12 9 0 16 5 16 11 0 5 5 7 10 4 6 -3 10 -1 10 5 0 6 5 8 10 5 6 -3 10 -2 10 3
0 4 20 19 45 31 25 12 45 27 45 33 0 6 3 8 7 5 3 -4 17 0 30 8 13 9 23 12 23
8 0 -5 5 0 11 10 6 9 14 15 18 12 5 -2 14 2 21 10 7 8 16 12 21 9 5 -3 9 0 9
5 0 6 7 11 15 11 7 0 18 7 23 16 5 9 11 15 13 13 9 -5 49 13 49 22 0 5 6 9 14
9 8 0 21 6 28 13 7 7 32 22 55 33 23 10 43 24 43 31 0 7 6 10 14 7 8 -3 17 0
21 5 3 6 11 9 16 6 5 -4 9 -2 9 3 0 5 12 17 26 27 18 12 24 13 19 4 -4 -9 -2
-9 7 1 7 8 36 26 63 39 28 14 56 32 63 40 11 13 12 13 7 1 -4 -10 -2 -9 8 3 8
9 19 17 26 17 6 0 11 5 11 11 0 5 5 7 10 4 6 -3 13 1 16 9 3 9 10 13 15 10 5
-3 17 2 26 11 20 20 10 31 -59 67 -26 14 -45 27 -43 30 2 2 -11 10 -30 17 -19
7 -35 17 -35 22 0 6 -4 8 -9 5 -5 -3 -11 1 -15 9 -3 8 -12 15 -21 15 -17 0
-65 28 -77 45 -4 5 -8 7 -8 3 0 -6 -99 49 -125 69 -5 4 -35 21 -65 37 -30 16
-57 32 -60 36 -3 3 -20 12 -37 19 -18 8 -33 16 -33 20 0 4 -16 13 -35 20 -19
7 -35 17 -35 22 0 5 -9 9 -20 9 -11 0 -20 4 -20 9 0 5 -13 14 -30 21 -16 7
-30 16 -30 21 0 5 -9 9 -20 9 -11 0 -20 3 -20 8 0 4 -21 18 -47 32 -27 13 -50
27 -53 30 -6 6 -25 17 -107 60 -35 17 -63 36 -63 42 0 5 -4 6 -10 3 -5 -3 -10
-1 -10 4 0 6 -3 10 -8 8 -4 -1 -50 23 -102 53 -52 30 -98 54 -102 52 -5 -1 -8
5 -8 14 0 8 -4 13 -9 10 -5 -3 -20 3 -34 14 -14 11 -29 20 -34 20 -5 0 -20 8
-33 17 -14 10 -31 18 -38 20 -8 1 -20 10 -29 20 -8 11 -12 12 -8 3 4 -10 2 -9
-8 3 -8 9 -19 17 -25 17 -6 0 -17 6 -24 13 -7 6 -26 19 -43 27 -16 8 -36 21
-43 28 -8 7 -18 10 -23 7 -5 -4 -9 -3 -9 2 0 4 -15 14 -32 22 -18 8 -35 17
-38 21 -3 4 -30 20 -60 37 -85 46 -105 57 -110 64 -3 4 -15 9 -27 13 -13 4
-23 12 -23 17 0 18 -85 10 -107 -10z"/>
<path d="M334 3588 c0 -21 3 -38 8 -38 5 0 6 -5 2 -12 -11 -17 -11 -58 -1 -58
4 0 5 -6 1 -12 -11 -18 -12 -48 -2 -48 5 0 6 -6 2 -12 -11 -18 -12 -48 -2 -48
5 0 6 -6 2 -12 -12 -19 -12 -48 -1 -48 5 0 4 -7 -3 -15 -10 -12 -10 -15 1 -15
12 0 12 -2 0 -9 -9 -6 -10 -11 -2 -15 6 -4 8 -13 4 -19 -11 -18 -12 -37 -2
-37 6 0 5 -8 -1 -20 -8 -14 -8 -20 0 -20 8 0 8 -6 0 -20 -8 -14 -8 -20 0 -20
8 0 8 -6 0 -20 -8 -14 -8 -20 0 -20 8 0 8 -6 0 -20 -8 -14 -8 -20 0 -20 8 0 8
-6 0 -20 -8 -14 -8 -20 0 -20 8 0 8 -6 0 -20 -8 -14 -8 -20 0 -20 8 0 8 -6 0
-20 -6 -11 -7 -20 -3 -20 4 0 8 -16 8 -35 0 -19 -4 -35 -10 -35 -5 0 -3 -5 5
-10 12 -8 12 -10 1 -10 -10 0 -11 -3 -2 -14 8 -9 8 -16 2 -20 -6 -4 -6 -18 -1
-36 6 -20 5 -30 -3 -34 -8 -3 -7 -5 2 -5 11 -1 11 -4 1 -16 -9 -11 -9 -15 -1
-15 8 0 9 -5 2 -17 -5 -10 -5 -26 0 -40 5 -14 5 -23 -1 -23 -12 0 -9 -22 4
-31 4 -4 4 -15 -2 -25 -6 -11 -7 -27 -2 -40 6 -15 5 -24 -3 -28 -8 -3 -8 -5 2
-5 11 -1 11 -4 1 -16 -9 -11 -9 -15 -1 -15 7 0 9 -5 4 -12 -10 -17 -10 -52 1
-59 4 -4 3 -16 -3 -28 -8 -15 -9 -21 -1 -21 6 0 8 -5 3 -12 -11 -19 -12 -37
-2 -44 5 -3 5 -13 -1 -25 -8 -13 -7 -19 0 -19 6 0 8 -5 4 -12 -11 -17 -10 -68
0 -68 6 0 5 -5 -1 -11 -6 -6 -8 -23 -3 -44 4 -19 5 -37 2 -40 -10 -10 -8 -55
3 -55 5 0 3 -5 -5 -10 -13 -9 -13 -10 0 -10 9 0 11 -3 5 -8 -14 -10 -15 -72
-1 -72 6 0 4 -5 -4 -10 -12 -8 -12 -10 -1 -10 11 0 11 -3 0 -17 -11 -13 -11
-17 -1 -20 6 -3 10 -9 6 -14 -11 -19 -13 -69 -2 -69 6 0 5 -7 -3 -17 -11 -13
-11 -17 -1 -20 6 -3 10 -9 6 -14 -12 -19 -13 -70 -2 -63 7 5 8 2 3 -7 -5 -7
-8 -26 -7 -42 2 -20 -1 -27 -10 -22 -7 4 -5 0 4 -8 10 -8 15 -17 11 -21 -6 -6
-8 -68 -3 -91 1 -5 2 -12 0 -15 -7 -20 -7 -60 0 -60 6 0 6 -10 0 -25 -7 -17
-6 -25 1 -25 8 0 8 -5 -1 -15 -9 -11 -6 -20 20 -45 17 -16 37 -30 45 -30 8 0
15 -4 15 -10 0 -5 5 -10 11 -10 6 0 24 -9 40 -21 16 -11 29 -18 29 -14 0 3 10
-3 22 -15 12 -11 27 -20 34 -20 6 0 17 -7 24 -15 6 -8 15 -14 18 -12 9 2 64
-34 74 -48 4 -5 8 -6 8 -2 0 5 12 0 28 -10 15 -10 39 -25 55 -33 15 -7 27 -17
27 -22 0 -5 4 -7 9 -3 6 3 14 -3 20 -12 5 -10 13 -17 18 -16 12 3 63 -21 63
-29 0 -5 7 -8 15 -8 8 0 15 -5 15 -11 0 -5 4 -7 10 -4 5 3 10 1 10 -5 0 -6 4
-9 9 -6 5 3 12 -1 15 -10 3 -8 10 -12 16 -9 5 3 10 3 10 -2 0 -4 15 -14 33
-22 17 -8 34 -17 37 -20 4 -5 44 -27 122 -68 15 -8 30 -18 33 -24 4 -5 14 -9
25 -9 10 0 21 -7 24 -16 3 -8 10 -12 16 -9 5 3 10 1 10 -5 0 -6 4 -9 9 -6 4 3
16 -3 26 -14 10 -11 24 -20 30 -20 7 0 23 -9 37 -19 14 -11 31 -21 39 -23 7
-2 22 -11 33 -20 11 -10 26 -18 33 -18 7 0 13 -5 13 -11 0 -6 6 -9 14 -6 8 3
17 -1 20 -9 3 -8 11 -14 19 -14 7 0 28 -11 47 -25 18 -13 37 -22 41 -19 5 3 9
1 9 -4 0 -5 12 -15 28 -23 15 -8 29 -16 32 -19 3 -3 25 -16 50 -29 25 -13 52
-30 61 -38 9 -7 18 -11 21 -8 3 3 17 -6 32 -20 14 -13 27 -24 29 -23 7 4 47
-15 47 -23 0 -5 9 -9 20 -9 11 0 20 -4 20 -8 0 -5 18 -17 40 -27 22 -10 40
-22 40 -27 0 -5 4 -7 8 -4 5 3 20 -5 33 -17 13 -12 26 -21 29 -19 3 1 14 -6
25 -15 11 -9 21 -16 23 -15 6 5 22 1 34 -11 23 -21 115 -67 122 -60 3 3 6 0 6
-7 0 -11 3 -11 11 -3 11 11 20 203 9 203 -3 0 -6 42 -7 93 -2 110 -3 117 -18
117 -7 0 -20 9 -30 20 -10 11 -22 20 -27 20 -5 0 -14 5 -21 10 -34 29 -89 60
-98 55 -5 -4 -9 -2 -9 4 0 6 -25 23 -55 37 -30 15 -55 31 -55 36 0 5 -4 7 -8
4 -5 -3 -18 3 -28 12 -10 10 -23 20 -29 21 -30 10 -55 25 -55 33 0 5 -4 7 -8
4 -4 -2 -30 11 -57 29 -28 19 -56 34 -62 35 -7 0 -13 5 -13 11 0 5 -4 8 -9 4
-5 -3 -13 0 -16 5 -4 6 -17 16 -28 21 -12 6 -40 21 -62 34 -22 14 -59 35 -82
47 -24 12 -43 26 -43 30 0 4 -6 8 -12 8 -7 0 -24 9 -38 20 -14 11 -33 20 -42
20 -10 0 -18 4 -18 9 0 5 -8 11 -17 14 -10 4 -40 20 -68 37 -27 17 -57 33 -65
37 -8 4 -18 11 -22 17 -4 6 -11 11 -15 11 -23 2 -53 18 -48 26 4 5 -1 9 -10 9
-15 0 -55 19 -65 31 -3 3 -34 21 -70 40 -36 18 -67 36 -70 39 -9 9 -45 30 -77
45 -17 8 -35 19 -38 25 -4 6 -11 8 -16 5 -5 -4 -9 -1 -9 4 0 6 -7 11 -15 11
-8 0 -15 4 -15 8 0 5 -16 15 -35 22 -20 8 -41 20 -47 27 -5 7 -14 11 -18 8 -5
-3 -11 4 -15 15 -4 11 -9 18 -13 16 -4 -2 -7 304 -7 680 0 449 3 684 10 684 7
0 7 3 0 8 -5 4 -10 36 -11 72 0 36 1 60 3 54 2 -7 13 -10 23 -7 11 3 20 0 20
-6 0 -6 12 -17 28 -23 15 -7 41 -23 58 -35 17 -13 35 -23 39 -23 5 0 16 -6 24
-14 9 -8 43 -28 76 -45 33 -18 83 -45 110 -62 28 -16 58 -32 68 -35 9 -4 17
-11 17 -16 0 -5 5 -6 10 -3 6 3 10 2 10 -3 0 -5 14 -15 30 -22 17 -7 30 -17
30 -22 0 -5 4 -7 8 -4 4 2 27 -9 51 -25 24 -16 50 -29 56 -29 7 0 16 -7 19
-16 4 -9 13 -14 21 -10 8 3 15 2 15 -3 0 -9 131 -89 215 -130 28 -14 52 -29
53 -33 2 -5 9 -8 17 -8 7 0 18 -6 25 -14 6 -8 19 -12 27 -9 10 4 14 2 10 -3
-3 -6 14 -19 39 -29 24 -10 44 -22 44 -27 0 -5 4 -7 9 -4 5 3 14 -1 21 -9 7
-8 36 -26 65 -41 30 -14 56 -33 60 -42 3 -9 3 -14 0 -10 -4 3 -15 -2 -26 -13
-11 -11 -24 -17 -29 -14 -6 4 -10 1 -10 -5 0 -6 -5 -8 -10 -5 -6 3 -13 -1 -16
-9 -3 -9 -10 -14 -14 -11 -5 3 -16 -2 -24 -11 -9 -8 -16 -13 -16 -9 0 4 -7 -1
-16 -9 -8 -9 -23 -16 -31 -16 -9 0 -13 -3 -10 -6 7 -7 -113 -70 -126 -66 -5 1
-6 -1 -3 -6 2 -4 -22 -20 -55 -36 -32 -15 -59 -32 -59 -37 0 -6 -4 -7 -10 -4
-5 3 -10 1 -10 -4 0 -6 -6 -11 -14 -11 -8 0 -21 -6 -28 -13 -7 -7 -28 -20 -45
-28 -18 -7 -33 -18 -33 -23 0 -4 -7 -6 -15 -2 -8 3 -15 1 -15 -5 0 -5 -16 -17
-35 -25 -19 -8 -35 -19 -35 -25 0 -5 -4 -8 -9 -4 -5 3 -17 -2 -25 -11 -9 -8
-16 -13 -16 -9 0 3 -10 -1 -23 -10 -13 -8 -27 -12 -32 -8 -4 5 -5 3 -2 -4 4
-7 -5 -17 -22 -24 -16 -7 -27 -17 -25 -21 3 -4 0 -8 -5 -8 -30 0 12 -36 43
-38 5 0 12 -4 15 -9 3 -4 30 -19 58 -33 29 -14 53 -29 53 -33 0 -5 5 -5 10 -2
6 3 10 3 10 -2 0 -4 21 -19 48 -33 26 -13 50 -29 54 -35 4 -5 8 -6 8 -1 0 6 7
1 15 -10 8 -10 15 -15 15 -11 0 5 12 0 28 -11 15 -10 32 -21 37 -23 26 -10
150 -84 153 -91 2 -4 9 -8 16 -8 7 0 21 -8 32 -18 10 -10 21 -18 24 -19 21 -2
50 -16 50 -25 0 -5 6 -8 12 -6 7 3 21 -4 32 -13 10 -10 23 -16 28 -13 4 3 8 1
8 -5 0 -5 20 -19 45 -31 25 -12 47 -26 51 -31 3 -5 10 -7 15 -4 5 4 9 1 9 -4
0 -6 6 -11 14 -11 8 0 16 -3 18 -7 4 -9 71 -48 111 -64 15 -6 27 -15 27 -20 0
-5 7 -9 16 -9 9 0 27 -9 41 -20 14 -11 32 -20 40 -20 8 0 11 -4 8 -10 -5 -9
15 -15 38 -11 4 0 7 -3 7 -9 0 -5 10 -10 23 -10 l22 0 -3 177 c-1 98 -3 215
-5 261 -1 45 0 82 3 82 3 0 3 27 0 60 -3 35 -2 64 4 70 7 7 5 10 -3 10 -11 0
-11 3 -1 15 9 11 9 15 1 15 -7 0 -9 5 -5 11 7 13 11 119 4 119 -3 0 -5 54 -5
120 0 66 4 120 8 120 5 0 6 4 3 9 -3 5 -6 82 -7 171 -2 133 -5 167 -18 182 -8
10 -21 18 -28 18 -7 0 -13 5 -13 10 0 6 -6 10 -13 10 -8 0 -22 9 -32 20 -10
11 -27 22 -39 26 -11 3 -30 14 -40 23 -16 13 -18 13 -11 1 5 -9 0 -8 -13 4
-12 11 -22 15 -22 10 0 -5 -5 -1 -11 9 -6 9 -14 15 -20 12 -5 -4 -9 -2 -9 3 0
4 -16 14 -35 22 -19 8 -35 18 -35 22 0 5 -4 6 -10 3 -5 -3 -10 -1 -10 4 0 6
-6 11 -14 11 -8 0 -21 6 -28 13 -7 6 -26 19 -43 27 -16 8 -32 17 -35 20 -3 3
-26 17 -52 30 -27 14 -48 29 -48 33 0 5 -4 6 -8 3 -5 -3 -25 6 -45 20 -20 14
-37 22 -37 18 0 -4 -8 3 -19 14 -10 12 -20 19 -23 17 -3 -3 -22 6 -42 20 -20
14 -56 35 -79 46 -23 12 -45 27 -49 33 -4 6 -8 7 -8 3 0 -5 -13 1 -29 12 -16
12 -34 21 -40 21 -6 0 -11 5 -11 10 0 6 -4 10 -9 10 -12 0 -134 72 -142 83 -4
5 -12 6 -18 3 -6 -4 -11 -2 -11 3 0 6 -7 11 -15 11 -8 0 -15 5 -15 10 0 6 -7
10 -15 10 -8 0 -15 5 -15 11 0 5 -4 8 -10 4 -5 -3 -18 2 -28 12 -10 10 -25 19
-33 21 -8 2 -24 10 -36 18 -13 8 -25 14 -28 14 -3 0 -15 9 -27 19 -11 11 -25
18 -29 15 -4 -2 -12 4 -18 13 -6 10 -11 15 -11 11 0 -4 -16 4 -36 17 -20 14
-43 25 -51 25 -8 0 -11 5 -8 10 3 6 -3 10 -14 10 -10 0 -21 3 -23 8 -2 4 -24
18 -50 31 -27 13 -48 28 -48 33 0 5 -4 6 -10 3 -5 -3 -10 -1 -10 5 0 6 -4 8
-10 5 -5 -3 -10 -1 -10 4 0 6 -7 11 -15 11 -8 0 -15 5 -15 10 0 6 -7 10 -15
10 -8 0 -15 5 -15 11 0 5 -4 7 -10 4 -5 -3 -10 -1 -10 4 0 6 -3 10 -7 9 -5 -1
-34 14 -66 35 -31 20 -62 37 -67 37 -5 0 -13 6 -17 14 -4 8 -12 15 -18 15 -22
2 -45 13 -45 22 0 5 -7 9 -15 9 -8 0 -15 4 -15 8 0 5 -6 9 -12 9 -8 0 -13 -15
-14 -39z"/>
<path d="M4750 3604 c-7 -8 -18 -14 -25 -14 -7 0 -16 -7 -19 -16 -3 -8 -10
-13 -15 -9 -6 3 -14 -3 -20 -12 -6 -10 -11 -14 -11 -9 0 4 -15 -3 -34 -17 -18
-15 -36 -24 -38 -21 -3 2 -11 -2 -18 -11 -7 -8 -19 -15 -26 -15 -8 0 -14 -5
-14 -11 0 -5 -4 -7 -10 -4 -5 3 -10 2 -10 -2 0 -5 -16 -17 -35 -27 -19 -10
-36 -26 -39 -35 -3 -16 -1 -104 4 -108 6 -7 6 -29 -1 -38 -6 -9 -5 -62 1 -90
1 -5 1 -12 0 -15 -8 -17 -5 -87 4 -99 7 -10 7 -13 1 -9 -8 5 -11 -233 -11
-763 0 -423 3 -769 7 -769 4 0 1 -14 -8 -30 -8 -17 -19 -28 -24 -25 -5 4 -9 1
-9 -6 0 -7 -3 -9 -6 -6 -4 3 -18 -2 -32 -13 -13 -11 -28 -17 -33 -14 -5 3 -9
0 -9 -5 0 -6 -5 -11 -10 -11 -6 0 -28 -11 -50 -25 -22 -14 -47 -25 -55 -25 -9
0 -18 -7 -21 -15 -4 -8 -12 -15 -20 -15 -8 0 -14 -5 -14 -11 0 -5 -4 -7 -10
-4 -5 3 -10 2 -10 -2 0 -5 -18 -16 -40 -26 -22 -9 -40 -22 -40 -28 0 -5 -4 -8
-9 -4 -5 3 -12 1 -16 -5 -4 -6 -11 -8 -16 -5 -5 4 -12 -1 -15 -9 -3 -9 -10
-13 -15 -10 -5 3 -9 1 -9 -4 0 -9 -33 -22 -46 -19 -3 1 -10 -6 -15 -16 -6 -9
-17 -17 -24 -17 -8 0 -15 -5 -15 -10 0 -6 -3 -10 -7 -9 -16 2 -53 -14 -53 -23
0 -5 -4 -6 -10 -3 -5 3 -10 2 -10 -3 0 -4 -20 -19 -45 -31 -25 -12 -45 -27
-45 -32 0 -5 -3 -8 -7 -8 -21 3 -33 -2 -27 -13 4 -6 3 -8 -3 -5 -6 4 -31 -7
-56 -23 -25 -15 -48 -26 -51 -23 -3 4 -6 2 -6 -4 0 -5 -18 -18 -40 -29 -22
-10 -40 -22 -40 -26 0 -5 -7 -8 -15 -8 -8 0 -15 -5 -15 -11 0 -5 -4 -7 -10 -4
-5 3 -10 1 -10 -5 0 -6 -4 -8 -10 -5 -5 3 -10 1 -10 -4 0 -6 -7 -11 -15 -11
-9 0 -18 -7 -21 -15 -4 -8 -10 -13 -14 -10 -5 3 -14 -1 -22 -8 -7 -7 -25 -18
-40 -24 -16 -7 -28 -17 -28 -23 0 -6 -4 -9 -9 -5 -5 3 -12 1 -16 -5 -4 -6 -10
-8 -15 -5 -4 3 -11 -2 -14 -11 -4 -9 -9 -14 -12 -11 -4 3 -13 -1 -21 -9 -8 -8
-19 -12 -24 -9 -5 4 -9 2 -9 -3 0 -5 -7 -9 -15 -9 -19 0 -21 57 -2 76 7 9 8
11 1 8 -16 -9 -16 362 0 382 8 10 5 17 -9 27 -10 8 -14 14 -8 14 6 0 9 15 6
36 -3 27 -1 34 9 28 10 -6 10 -4 2 7 -13 17 -16 117 -3 124 5 4 9 12 9 18 0 8
-3 8 -9 -1 -4 -8 -8 36 -8 103 0 63 4 118 8 121 5 3 4 15 -3 27 -7 12 -11 27
-9 32 8 26 6 95 -4 99 -6 3 -6 5 1 5 7 1 10 14 8 33 -2 17 1 37 7 44 6 8 7 14
0 18 -13 8 -11 47 3 65 8 11 8 13 -1 8 -13 -8 -12 70 2 92 5 9 4 12 -3 7 -7
-4 -10 1 -9 14 1 11 6 20 12 20 6 0 7 3 0 8 -15 11 -17 64 -2 55 8 -5 8 -2 -1
9 -10 13 -10 17 2 21 8 3 17 -1 20 -10 4 -9 9 -13 12 -10 4 3 15 -3 27 -14 11
-10 27 -19 34 -19 7 0 13 -5 13 -11 0 -5 5 -7 10 -4 6 3 10 1 10 -5 0 -6 5 -8
10 -5 6 3 10 1 10 -4 0 -6 7 -11 16 -11 9 0 25 -10 35 -22 11 -11 19 -18 19
-14 0 4 15 -2 33 -13 19 -11 37 -18 40 -14 4 3 7 1 7 -5 0 -6 29 -26 65 -43
36 -18 65 -37 65 -42 0 -4 4 -6 9 -2 5 3 15 -1 23 -8 7 -7 28 -20 46 -28 17
-7 32 -17 32 -21 0 -5 7 -8 15 -8 8 0 41 -17 72 -37 48 -31 95 -56 123 -66 6
-2 36 -26 55 -44 8 -7 20 -13 28 -13 9 0 18 -6 20 -12 4 -10 6 -10 6 0 1 8 6
10 14 6 6 -4 9 -4 5 1 -4 4 -3 16 2 26 7 12 7 20 0 24 -7 4 -6 13 1 27 8 15 8
19 0 14 -12 -8 -11 21 2 40 3 6 3 14 -1 18 -12 13 -11 156 2 149 7 -5 7 -2 -1
8 -15 18 -14 79 1 98 8 11 8 13 0 8 -8 -5 -12 4 -12 28 0 19 4 38 9 41 5 3 9
11 9 17 0 8 -3 8 -9 -2 -5 -8 -8 10 -8 48 0 36 5 61 11 61 8 0 7 3 0 8 -14 9
-14 43 0 61 8 11 8 13 0 8 -15 -9 -14 95 0 105 8 5 8 8 0 8 -6 0 -11 11 -11
25 0 14 4 22 10 18 6 -4 7 -1 1 8 -12 21 -15 77 -3 84 6 5 6 12 -2 22 -10 11
-10 19 -1 33 6 11 8 22 3 24 -5 3 -9 26 -8 50 0 29 4 43 11 39 6 -4 6 0 -1 8
-15 18 -14 79 1 98 8 11 8 13 0 8 -8 -5 -11 15 -11 68 1 48 5 72 12 67 5 -3 4
2 -3 11 -8 9 -11 20 -8 25 3 6 -2 16 -11 23 -12 10 -14 10 -9 2 5 -9 0 -13
-13 -13 -12 0 -21 -4 -21 -8 0 -5 -18 -16 -40 -26 -22 -10 -40 -22 -40 -27 0
-6 -4 -8 -8 -5 -5 3 -18 -3 -28 -12 -10 -10 -21 -19 -24 -19 -12 -2 -86 -39
-97 -48 -28 -23 -40 -30 -53 -33 -8 -2 -18 -9 -22 -15 -4 -7 -8 -8 -8 -3 0 6
-7 1 -15 -10 -8 -10 -15 -16 -15 -12 0 4 -21 -6 -46 -22 -26 -16 -51 -27 -57
-23 -6 3 -7 2 -4 -4 6 -9 -34 -35 -56 -37 -4 -1 -20 -12 -34 -26 -15 -14 -23
-19 -19 -13 4 7 -6 5 -23 -5 -17 -9 -31 -21 -31 -25 0 -5 -4 -5 -10 -2 -5 3
-10 1 -10 -5 0 -6 -4 -9 -9 -6 -5 4 -11 2 -13 -3 -1 -5 -10 -11 -18 -13 -8 -2
-23 -11 -34 -20 -11 -10 -26 -18 -33 -18 -7 0 -13 -5 -13 -12 0 -6 -3 -8 -6
-5 -4 3 -18 -3 -32 -13 -13 -11 -31 -20 -38 -20 -8 0 -14 -3 -14 -8 0 -4 -15
-13 -32 -21 -18 -8 -35 -18 -38 -22 -3 -4 -12 -9 -20 -11 -8 -2 -20 -9 -25
-16 -6 -7 -20 -14 -32 -15 -12 0 -21 -6 -20 -11 1 -6 -2 -10 -8 -11 -18 -1
-95 -48 -95 -59 0 -5 -3 -6 -7 -3 -3 4 -12 -1 -20 -11 -8 -9 -12 -11 -8 -5 4
9 1 11 -9 7 -9 -3 -14 -10 -11 -14 3 -5 1 -11 -4 -14 -5 -4 -9 -44 -9 -90 0
-47 -3 -89 -6 -95 -4 -6 -3 -11 3 -11 7 0 7 -8 1 -25 -5 -14 -6 -25 -2 -25 4
0 7 -27 7 -60 0 -33 -4 -60 -9 -60 -5 0 -3 -7 4 -15 9 -11 9 -15 1 -15 -7 0
-9 -5 -6 -10 4 -6 6 -95 5 -198 -6 -522 -4 -1082 3 -1082 5 0 5 -4 2 -10 -3
-5 -7 -141 -8 -302 -2 -250 0 -295 13 -306 8 -8 9 -11 3 -7 -7 3 -13 1 -13 -4
0 -6 11 -11 25 -11 14 0 25 5 25 11 0 5 4 8 9 4 5 -3 12 -1 16 5 4 6 11 8 16
5 5 -4 9 -1 9 5 0 5 16 18 35 27 19 9 35 21 35 25 0 5 4 7 10 3 5 -3 18 2 28
12 10 10 25 19 33 21 7 2 17 8 20 14 3 5 8 9 10 7 8 -4 89 42 89 51 0 6 11 10
25 10 14 0 25 5 25 12 0 6 3 9 6 6 3 -4 14 2 25 13 11 11 24 17 28 14 5 -2 12
2 15 11 4 9 9 14 13 11 3 -3 25 7 49 24 24 17 49 27 56 23 6 -4 8 -3 5 3 -3 5
24 25 61 44 37 19 71 40 75 47 5 7 12 10 18 7 5 -4 9 -1 9 5 0 6 5 8 10 5 6
-3 10 -1 10 4 0 6 7 11 15 11 8 0 15 4 15 8 0 4 12 13 28 19 32 14 81 43 100
61 7 6 20 12 28 12 8 0 14 5 14 10 0 6 6 10 14 10 7 0 25 9 40 21 14 11 26 17
26 12 0 -4 4 -3 8 2 12 18 65 48 57 34 -3 -8 -1 -7 7 2 7 9 23 19 36 23 12 4
19 12 16 18 -5 7 -2 8 6 3 7 -4 15 -3 19 2 3 6 25 20 49 32 23 12 42 26 42 32
0 6 4 7 10 4 9 -5 88 40 101 58 3 5 8 8 10 8 12 -2 49 13 49 19 0 8 38 23 53
21 4 -1 7 4 7 9 0 6 18 18 40 27 22 10 40 21 40 25 0 5 6 8 14 8 7 0 19 7 26
15 7 8 16 12 21 9 5 -3 9 0 9 6 0 6 5 8 10 5 6 -3 10 -2 10 3 0 5 13 15 30 22
17 7 27 17 23 24 -3 6 -3 8 2 4 4 -4 14 -3 22 3 7 6 13 8 13 3 0 -5 4 -4 8 3
4 6 14 13 21 15 8 2 25 12 39 23 13 11 28 20 32 20 5 0 18 8 29 17 11 9 22 14
25 11 3 -4 6 -1 6 6 0 7 5 9 10 6 6 -3 10 -2 10 3 0 5 11 14 24 20 19 8 24 18
22 41 -1 17 1 31 6 31 10 0 6 23 -6 31 -5 4 -5 13 0 20 12 20 14 38 3 45 -6 3
-5 12 3 21 15 18 15 23 -2 33 -8 5 -9 13 -4 21 12 20 14 38 3 45 -6 4 -6 10 0
17 14 18 14 29 1 37 -8 5 -9 13 -4 21 12 19 12 49 1 49 -6 0 -5 5 1 13 15 18
15 29 1 38 -9 5 -10 11 -2 21 14 16 14 29 3 43 -5 6 -5 17 0 25 5 8 5 21 -1
31 -6 11 -5 20 1 24 5 3 7 11 4 18 -9 23 -10 87 -2 87 10 0 6 23 -6 31 -4 4
-4 15 2 25 6 11 7 27 1 41 -5 14 -5 23 1 23 12 0 9 22 -4 31 -4 4 -4 15 2 25
6 11 7 27 1 41 -5 14 -5 23 1 23 12 0 9 22 -4 31 -4 4 -4 15 2 25 6 11 7 27 1
41 -6 16 -5 23 4 23 8 0 7 4 -3 10 -12 8 -12 10 -1 10 10 0 11 3 2 13 -6 8 -8
17 -4 20 9 9 10 57 2 57 -9 0 -6 21 4 38 5 7 3 12 -3 12 -6 0 -8 5 -3 13 11
18 13 37 3 37 -5 0 -5 13 0 29 5 20 5 31 -2 33 -8 3 -7 11 1 26 8 15 8 22 1
22 -6 0 -8 5 -4 12 12 19 12 48 1 48 -5 0 -4 7 3 15 10 12 10 15 -1 15 -12 0
-12 2 0 9 9 6 10 11 2 15 -6 4 -8 13 -4 19 11 18 13 57 3 57 -6 0 -6 10 0 25
6 17 6 25 -1 25 -6 0 -7 5 -3 12 12 19 12 98 0 98 -6 0 -4 5 4 10 12 8 12 10
1 10 -11 0 -11 3 0 17 11 13 11 17 1 20 -6 3 -10 9 -6 14 11 19 13 69 2 69 -6
0 -5 7 3 17 11 13 11 17 2 20 -9 3 -10 10 -3 23 7 13 7 21 0 25 -6 4 -7 12 -3
18 11 18 12 57 2 57 -6 0 -8 4 -4 9 11 19 12 71 1 71 -7 0 -7 3 -1 8 14 10 17
32 4 32 -8 0 -7 6 2 17 11 13 11 17 1 20 -6 3 -10 9 -6 14 11 18 13 69 3 69
-6 0 -7 6 -2 13 24 38 -1 94 -27 61z"/>
</g>
</svg>
